<svg id="svg" version="1.1" xmlns="http://www.w3.org/2000/svg" xmlns:xlink="http://www.w3.org/1999/xlink" width="400" height="400" viewBox="0, 0, 400,400"><g id="svgg"><path id="path0" d="M188.800 23.200 C 188.800 23.420,188.625 23.600,188.412 23.600 C 188.198 23.600,186.653 24.410,184.978 25.400 C 183.304 26.390,181.761 27.200,181.550 27.200 C 181.339 27.200,180.780 27.560,180.308 28.000 C 179.836 28.440,179.112 28.800,178.701 28.800 C 178.289 28.800,178.064 28.980,178.200 29.200 C 178.336 29.420,178.167 29.600,177.824 29.600 C 177.481 29.600,177.200 29.780,177.200 30.000 C 177.200 30.220,176.840 30.400,176.400 30.400 C 175.960 30.400,175.600 30.580,175.600 30.800 C 175.600 31.020,175.364 31.200,175.075 31.200 C 174.787 31.200,174.164 31.560,173.692 32.000 C 173.220 32.440,172.556 32.800,172.217 32.800 C 171.878 32.800,171.600 32.980,171.600 33.200 C 171.600 33.420,171.240 33.600,170.800 33.600 C 170.360 33.600,170.000 33.777,170.000 33.992 C 170.000 34.208,169.550 34.498,169.000 34.636 C 168.450 34.774,168.000 35.003,168.000 35.146 C 168.000 35.426,165.780 36.491,165.382 36.402 C 165.249 36.372,164.836 36.674,164.465 37.074 C 163.690 37.909,162.206 38.800,161.589 38.800 C 161.357 38.800,160.780 39.160,160.308 39.600 C 159.836 40.040,159.213 40.400,158.925 40.400 C 158.636 40.400,158.400 40.580,158.400 40.800 C 158.400 41.020,158.130 41.200,157.800 41.200 C 157.470 41.200,157.200 41.346,157.200 41.525 C 157.200 41.704,156.570 42.098,155.800 42.400 C 155.030 42.702,154.400 43.062,154.400 43.200 C 154.400 43.338,153.770 43.698,153.000 44.000 C 152.230 44.302,151.600 44.681,151.600 44.843 C 151.600 45.004,151.060 45.255,150.400 45.400 C 149.740 45.545,149.200 45.829,149.200 46.032 C 149.200 46.234,148.930 46.400,148.600 46.400 C 148.270 46.400,148.000 46.536,148.000 46.702 C 148.000 47.065,145.540 48.221,145.070 48.079 C 144.889 48.025,144.855 48.165,144.994 48.390 C 145.133 48.616,144.967 48.800,144.624 48.800 C 144.281 48.800,144.000 48.946,144.000 49.125 C 144.000 49.304,143.370 49.698,142.600 50.000 C 141.830 50.302,141.200 50.696,141.200 50.875 C 141.200 51.054,140.964 51.200,140.675 51.200 C 140.387 51.200,139.764 51.560,139.292 52.000 C 138.820 52.440,138.156 52.800,137.817 52.800 C 137.478 52.800,137.200 52.980,137.200 53.200 C 137.200 53.420,136.840 53.600,136.400 53.600 C 135.960 53.600,135.600 53.739,135.600 53.909 C 135.600 54.080,134.428 54.814,132.997 55.541 C 131.565 56.269,130.170 57.083,129.897 57.352 C 129.623 57.620,128.463 58.304,127.318 58.872 C 126.173 59.439,125.348 60.015,125.485 60.152 C 125.622 60.288,125.343 60.400,124.867 60.400 C 124.390 60.400,124.000 60.580,124.000 60.800 C 124.000 61.020,123.655 61.200,123.233 61.200 C 122.812 61.200,122.407 61.335,122.333 61.500 C 122.131 61.955,119.690 63.600,119.216 63.600 C 118.987 63.600,118.800 63.780,118.800 64.000 C 118.800 64.220,118.476 64.400,118.080 64.400 C 117.684 64.400,117.144 64.616,116.880 64.880 C 116.616 65.144,116.400 65.227,116.400 65.064 C 116.400 64.902,116.006 65.136,115.525 65.584 C 115.043 66.033,114.413 66.400,114.125 66.400 C 113.836 66.400,113.600 66.580,113.600 66.800 C 113.600 67.020,113.323 67.200,112.984 67.200 C 112.449 67.200,110.174 68.566,109.600 69.232 C 109.490 69.360,108.815 69.719,108.100 70.030 C 107.385 70.341,106.800 70.731,106.800 70.898 C 106.800 71.064,106.530 71.200,106.200 71.200 C 105.870 71.200,105.600 71.359,105.600 71.553 C 105.600 71.748,105.253 71.997,104.829 72.108 C 103.788 72.381,104.022 73.763,105.136 73.928 C 105.611 73.998,106.000 74.223,106.000 74.428 C 106.000 74.633,106.270 74.800,106.600 74.800 C 106.930 74.800,107.200 74.980,107.200 75.200 C 107.200 75.420,107.460 75.600,107.777 75.600 C 108.603 75.600,111.200 77.198,111.200 77.706 C 111.200 77.941,111.301 78.033,111.423 77.910 C 111.546 77.787,112.921 78.387,114.479 79.243 C 116.036 80.099,117.466 80.800,117.655 80.800 C 117.845 80.800,118.000 80.980,118.000 81.200 C 118.000 81.420,118.278 81.600,118.617 81.600 C 118.956 81.600,119.620 81.960,120.092 82.400 C 120.564 82.840,121.187 83.200,121.475 83.200 C 121.764 83.200,122.000 83.380,122.000 83.600 C 122.000 83.820,122.209 84.000,122.465 84.000 C 122.878 84.000,126.690 86.244,127.200 86.787 C 127.310 86.904,127.633 87.048,127.917 87.106 C 128.201 87.164,129.191 87.697,130.117 88.290 C 131.043 88.884,132.025 89.324,132.300 89.267 C 132.575 89.211,132.800 89.309,132.800 89.485 C 132.800 89.661,133.385 90.063,134.100 90.378 C 134.815 90.693,135.638 91.187,135.929 91.475 C 136.219 91.764,136.804 92.000,137.229 92.000 C 137.653 92.000,138.000 92.137,138.000 92.304 C 138.000 92.472,139.160 93.216,140.578 93.958 C 141.996 94.700,143.254 95.565,143.375 95.879 C 143.496 96.193,143.776 96.339,143.997 96.202 C 144.219 96.065,144.400 96.138,144.400 96.364 C 144.400 96.590,144.670 96.671,145.000 96.545 C 145.330 96.418,145.600 96.523,145.600 96.778 C 145.600 97.032,146.275 97.506,147.100 97.831 C 147.925 98.155,148.934 98.609,149.342 98.840 C 149.863 99.135,150.006 99.133,149.821 98.834 C 149.659 98.572,149.803 98.503,150.196 98.654 C 150.547 98.789,150.734 99.000,150.611 99.123 C 150.487 99.246,150.942 99.580,151.622 99.866 C 152.447 100.213,152.755 100.553,152.551 100.893 C 152.352 101.224,152.492 101.200,152.954 100.826 C 153.568 100.327,153.709 100.327,154.024 100.826 C 154.336 101.318,154.389 101.315,154.400 100.800 C 154.411 100.267,154.459 100.267,154.837 100.800 C 155.156 101.252,155.311 101.276,155.464 100.900 C 155.611 100.538,157.035 100.400,160.633 100.400 C 163.678 100.400,165.600 100.245,165.600 100.000 C 165.600 99.755,167.533 99.600,170.600 99.600 C 173.667 99.600,175.600 99.445,175.600 99.200 C 175.600 98.955,177.533 98.800,180.600 98.800 C 183.667 98.800,185.600 98.645,185.600 98.400 C 185.600 98.180,186.410 98.000,187.400 98.000 C 188.830 98.000,189.210 97.856,189.247 97.300 C 189.273 96.915,189.419 97.140,189.570 97.800 C 190.009 99.713,190.578 71.024,190.590 46.400 C 190.595 33.970,190.443 23.575,190.251 23.300 C 189.835 22.703,188.800 22.632,188.800 23.200 M92.988 89.619 C 92.858 89.830,92.695 93.827,92.626 98.501 C 92.546 103.862,92.600 105.597,92.772 103.200 L 93.045 99.400 93.123 102.500 L 93.200 105.600 94.800 105.600 C 95.680 105.600,96.400 105.420,96.400 105.200 C 96.400 104.955,98.333 104.800,101.400 104.800 C 104.467 104.800,106.400 104.645,106.400 104.400 C 106.400 104.158,108.252 103.989,111.100 103.972 C 113.685 103.956,116.160 103.773,116.600 103.564 C 117.346 103.209,117.339 103.195,116.500 103.354 C 116.006 103.448,115.500 103.362,115.377 103.162 C 115.254 102.963,115.371 102.800,115.639 102.800 C 116.359 102.800,114.109 100.980,112.343 100.134 C 111.499 99.731,110.807 99.254,110.805 99.076 C 110.802 98.898,110.635 98.855,110.432 98.980 C 110.230 99.105,109.793 98.936,109.461 98.604 C 109.129 98.272,108.707 98.000,108.523 98.000 C 108.340 98.000,107.262 97.376,106.129 96.612 C 104.035 95.203,101.888 93.925,99.900 92.905 C 99.295 92.595,98.800 92.175,98.800 91.971 C 98.800 91.767,98.665 91.638,98.500 91.684 C 98.165 91.778,95.112 90.382,94.800 89.992 C 94.397 89.488,93.219 89.246,92.988 89.619 M190.292 101.442 C 190.131 101.602,190.000 102.009,190.000 102.347 C 190.000 102.797,190.118 102.842,190.445 102.515 C 190.690 102.270,190.821 101.863,190.737 101.610 C 190.652 101.357,190.452 101.281,190.292 101.442 " stroke="none" fill="#048dac" fill-rule="evenodd"></path><path id="path1" d="M306.337 232.700 C 306.173 233.263,305.761 233.600,305.237 233.600 C 304.777 233.600,304.400 233.780,304.400 234.000 C 304.400 234.577,302.910 234.493,302.633 233.900 C 302.447 233.500,302.353 233.500,302.167 233.900 C 302.004 234.248,300.789 234.400,298.167 234.400 C 295.922 234.400,294.400 234.562,294.400 234.800 C 294.400 235.377,292.910 235.293,292.633 234.700 C 292.447 234.300,292.353 234.300,292.167 234.700 C 292.004 235.048,290.789 235.200,288.167 235.200 C 285.922 235.200,284.400 235.362,284.400 235.600 C 284.400 236.179,282.904 236.093,282.664 235.500 C 282.505 235.109,282.380 235.116,282.087 235.532 C 281.814 235.921,280.836 236.029,278.460 235.932 C 276.186 235.840,275.151 235.945,275.023 236.282 C 274.636 237.296,271.678 238.472,271.475 237.694 C 271.303 237.041,271.290 237.041,271.246 237.700 C 271.219 238.118,270.878 238.400,270.400 238.400 C 269.960 238.400,269.600 238.560,269.600 238.757 C 269.600 238.953,269.128 239.232,268.552 239.376 C 267.975 239.521,267.241 239.902,266.919 240.223 C 266.598 240.545,266.170 240.705,265.968 240.580 C 265.765 240.455,265.600 240.543,265.600 240.776 C 265.600 241.009,265.330 241.200,265.000 241.200 C 264.670 241.200,264.400 241.360,264.400 241.557 C 264.400 241.753,263.922 242.033,263.339 242.180 C 262.755 242.326,261.507 242.976,260.567 243.623 C 259.626 244.270,258.676 244.800,258.457 244.800 C 258.237 244.800,257.816 245.025,257.521 245.300 C 257.226 245.575,255.728 246.430,254.192 247.200 C 252.657 247.970,251.340 248.735,251.267 248.900 C 251.193 249.065,250.878 249.200,250.567 249.200 C 250.255 249.200,250.000 249.338,250.000 249.506 C 250.000 249.674,249.325 250.119,248.500 250.494 C 246.563 251.376,241.862 253.994,241.601 254.336 C 241.491 254.481,240.500 255.066,239.400 255.635 C 235.225 257.796,233.796 258.610,233.667 258.900 C 233.593 259.065,233.278 259.200,232.967 259.200 C 232.655 259.200,232.400 259.380,232.400 259.600 C 232.400 259.820,232.040 260.000,231.600 260.000 C 231.160 260.000,230.800 260.138,230.800 260.306 C 230.800 260.474,230.104 260.913,229.253 261.282 C 228.401 261.650,227.456 262.188,227.153 262.476 C 226.849 262.764,225.700 263.466,224.600 264.037 C 221.130 265.835,219.007 266.993,218.800 267.200 C 218.404 267.596,216.185 268.854,215.500 269.071 C 215.115 269.193,214.800 269.452,214.800 269.647 C 214.800 269.841,214.440 270.000,214.000 270.000 C 213.560 270.000,213.200 270.180,213.200 270.400 C 213.200 270.620,212.964 270.800,212.675 270.800 C 212.387 270.800,211.764 271.160,211.292 271.600 C 210.820 272.040,210.162 272.400,209.831 272.400 C 208.631 272.400,208.400 273.901,208.465 281.274 L 208.530 288.600 208.802 281.863 C 209.109 274.247,209.030 274.416,212.300 274.406 C 213.455 274.403,214.400 274.220,214.400 274.000 C 214.400 273.780,214.670 273.600,215.000 273.600 C 215.330 273.600,215.600 273.780,215.600 274.000 C 215.600 274.220,215.870 274.400,216.200 274.400 C 216.530 274.400,216.800 274.220,216.800 274.000 C 216.800 273.763,218.267 273.600,220.400 273.600 C 222.533 273.600,224.000 273.437,224.000 273.200 C 224.000 272.980,224.270 272.800,224.600 272.800 C 224.930 272.800,225.200 272.980,225.200 273.200 C 225.200 273.420,225.560 273.600,226.000 273.600 C 226.440 273.600,226.800 273.420,226.800 273.200 C 226.800 272.965,228.189 272.800,230.167 272.800 C 232.469 272.800,233.607 272.642,233.767 272.300 C 233.953 271.900,234.047 271.900,234.233 272.300 C 234.500 272.872,235.866 272.979,236.067 272.444 C 236.140 272.248,240.070 271.960,244.800 271.804 C 250.528 271.616,253.510 271.367,253.730 271.060 C 253.976 270.718,254.113 270.729,254.264 271.100 C 254.504 271.693,256.000 271.779,256.000 271.200 C 256.000 270.962,257.522 270.800,259.767 270.800 C 262.389 270.800,263.604 270.648,263.767 270.300 C 263.953 269.900,264.047 269.900,264.233 270.300 C 264.510 270.893,266.000 270.977,266.000 270.400 C 266.000 270.162,267.522 270.000,269.767 270.000 C 272.389 270.000,273.604 269.848,273.767 269.500 C 273.953 269.100,274.047 269.100,274.233 269.500 C 274.510 270.093,276.000 270.177,276.000 269.600 C 276.000 269.365,277.400 269.200,279.400 269.200 C 281.400 269.200,282.800 269.035,282.800 268.800 C 282.800 268.580,283.160 268.400,283.600 268.400 C 284.040 268.400,284.400 268.580,284.400 268.800 C 284.400 269.020,284.760 269.200,285.200 269.200 C 285.640 269.200,286.000 269.020,286.000 268.800 C 286.000 268.565,287.389 268.400,289.367 268.400 C 291.669 268.400,292.807 268.242,292.967 267.900 C 293.153 267.500,293.247 267.500,293.433 267.900 C 293.710 268.493,295.200 268.577,295.200 268.000 C 295.200 267.762,296.722 267.600,298.967 267.600 C 301.589 267.600,302.804 267.448,302.967 267.100 C 303.153 266.700,303.247 266.700,303.433 267.100 C 303.750 267.778,304.727 267.730,305.457 267.000 C 306.898 265.560,307.178 266.997,307.300 276.464 C 307.364 281.379,307.457 274.105,307.508 260.300 C 307.565 244.789,307.456 235.200,307.223 235.200 C 307.016 235.200,306.791 234.435,306.723 233.500 C 306.629 232.198,306.539 232.011,306.337 232.700 M225.655 239.958 C 225.194 240.249,225.194 240.337,225.655 240.520 C 225.955 240.639,225.720 240.751,225.133 240.768 C 224.547 240.786,223.962 240.575,223.833 240.300 C 223.647 239.900,223.553 239.900,223.367 240.300 C 223.203 240.651,221.949 240.800,219.167 240.800 C 216.789 240.800,215.200 240.960,215.200 241.200 C 215.200 241.774,214.111 241.694,213.833 241.100 C 213.647 240.700,213.553 240.700,213.367 241.100 C 212.910 242.079,209.277 241.737,209.117 240.700 C 208.955 239.651,208.000 247.272,208.000 249.614 C 208.000 251.463,208.861 251.748,210.325 250.384 C 210.806 249.936,211.206 249.711,211.213 249.884 C 211.220 250.058,211.473 249.873,211.776 249.473 C 212.079 249.074,212.389 248.754,212.464 248.762 C 212.995 248.822,214.400 248.242,214.400 247.964 C 214.400 247.775,214.940 247.341,215.600 247.000 C 216.260 246.659,216.800 246.508,216.800 246.666 C 216.800 246.824,217.064 246.604,217.387 246.176 C 217.710 245.749,217.980 245.534,217.987 245.697 C 217.994 245.861,218.465 245.591,219.034 245.097 C 219.603 244.604,220.368 244.192,220.734 244.181 C 221.100 244.171,221.366 243.980,221.325 243.756 C 221.284 243.533,222.395 242.827,223.794 242.188 C 225.606 241.359,226.322 240.821,226.283 240.313 C 226.254 239.921,226.223 239.603,226.215 239.606 C 226.207 239.609,225.955 239.768,225.655 239.958 M144.000 246.200 C 144.000 246.686,143.356 246.800,140.600 246.800 C 138.600 246.800,137.200 246.965,137.200 247.200 C 137.200 247.777,135.710 247.693,135.433 247.100 C 135.247 246.700,135.153 246.700,134.967 247.100 C 134.804 247.448,133.589 247.600,130.967 247.600 C 128.722 247.600,127.200 247.762,127.200 248.000 C 127.200 248.577,125.710 248.493,125.433 247.900 C 125.247 247.500,125.153 247.500,124.967 247.900 C 124.804 248.248,123.589 248.400,120.967 248.400 C 118.722 248.400,117.200 248.562,117.200 248.800 C 117.200 249.377,115.710 249.293,115.433 248.700 C 115.247 248.300,115.153 248.300,114.967 248.700 C 114.804 249.048,113.589 249.200,110.967 249.200 C 108.722 249.200,107.200 249.362,107.200 249.600 C 107.200 250.177,105.710 250.093,105.433 249.500 C 105.247 249.100,105.153 249.100,104.967 249.500 C 104.804 249.848,103.589 250.000,100.967 250.000 C 98.722 250.000,97.200 250.162,97.200 250.400 C 97.200 250.979,95.704 250.893,95.464 250.300 C 95.332 249.976,95.145 249.941,94.930 250.200 C 94.265 251.006,92.928 251.892,93.519 251.136 C 93.821 250.750,93.882 250.374,93.665 250.240 C 92.960 249.805,92.788 251.817,92.536 263.400 C 92.262 276.036,92.658 287.288,93.288 284.773 C 93.615 283.465,93.747 283.360,94.867 283.524 C 95.628 283.636,96.234 283.496,96.475 283.152 C 96.773 282.725,96.907 282.713,97.064 283.100 C 97.304 283.693,98.800 283.779,98.800 283.200 C 98.800 282.965,100.200 282.800,102.200 282.800 C 104.200 282.800,105.600 282.635,105.600 282.400 C 105.600 282.180,105.960 282.000,106.400 282.000 C 106.840 282.000,107.200 282.180,107.200 282.400 C 107.200 282.620,107.560 282.800,108.000 282.800 C 108.440 282.800,108.800 282.620,108.800 282.400 C 108.800 282.165,110.189 282.000,112.167 282.000 C 114.469 282.000,115.607 281.842,115.767 281.500 C 115.953 281.100,116.047 281.100,116.233 281.500 C 116.500 282.072,117.866 282.179,118.067 281.644 C 118.140 281.448,122.070 281.160,126.800 281.004 C 132.528 280.816,135.510 280.567,135.730 280.260 C 135.976 279.918,136.113 279.929,136.264 280.300 C 136.504 280.893,138.000 280.979,138.000 280.400 C 138.000 280.162,139.522 280.000,141.767 280.000 C 144.389 280.000,145.604 279.848,145.767 279.500 C 145.953 279.100,146.047 279.100,146.233 279.500 C 146.511 280.094,147.600 280.174,147.600 279.600 C 147.600 279.041,151.089 279.097,151.438 279.662 C 151.615 279.948,151.548 280.015,151.262 279.838 C 150.972 279.659,150.800 279.850,150.800 280.352 C 150.800 281.070,156.607 278.400,157.600 277.226 C 157.710 277.096,158.700 276.542,159.800 275.995 C 160.900 275.448,162.149 274.686,162.575 274.301 C 163.002 273.915,163.587 273.600,163.875 273.600 C 164.164 273.600,164.400 273.441,164.400 273.247 C 164.400 273.052,164.715 272.793,165.100 272.671 C 165.785 272.454,168.004 271.196,168.400 270.800 C 168.510 270.690,169.320 270.227,170.200 269.771 C 171.636 269.027,173.633 267.929,176.427 266.346 C 178.644 265.091,179.323 263.200,177.557 263.200 C 177.141 263.200,176.800 263.020,176.800 262.800 C 176.800 262.580,176.440 262.400,176.000 262.400 C 175.560 262.400,175.200 262.220,175.200 262.000 C 175.200 261.780,175.038 261.600,174.841 261.600 C 174.643 261.600,173.297 260.880,171.848 260.000 C 170.400 259.120,169.123 258.400,169.012 258.400 C 168.900 258.400,168.441 258.085,167.992 257.700 C 167.542 257.315,167.084 257.053,166.973 257.118 C 166.862 257.183,166.304 256.868,165.732 256.418 C 165.160 255.968,164.482 255.600,164.224 255.600 C 163.967 255.600,162.905 255.060,161.864 254.400 C 160.824 253.740,159.708 253.200,159.386 253.200 C 159.064 253.200,158.800 253.020,158.800 252.800 C 158.800 252.580,158.545 252.400,158.233 252.400 C 157.922 252.400,157.607 252.265,157.533 252.100 C 157.460 251.935,156.550 251.369,155.512 250.843 C 154.473 250.317,153.726 249.720,153.852 249.516 C 153.977 249.313,153.837 249.194,153.540 249.252 C 152.696 249.416,151.122 248.778,149.700 247.695 C 148.930 247.109,148.400 246.907,148.400 247.202 C 148.400 247.582,148.251 247.574,147.760 247.167 C 147.408 246.875,146.598 246.676,145.960 246.724 C 145.151 246.786,144.800 246.629,144.800 246.206 C 144.800 245.873,144.620 245.600,144.400 245.600 C 144.180 245.600,144.000 245.870,144.000 246.200 M190.400 277.973 C 190.400 278.178,190.746 278.456,191.169 278.590 C 191.891 278.819,191.941 279.312,191.983 286.698 C 192.008 291.023,192.112 294.646,192.214 294.748 C 192.493 295.027,192.438 278.964,192.157 278.233 C 191.900 277.562,190.400 277.340,190.400 277.973 M147.265 282.594 C 146.647 282.934,146.486 283.206,146.791 283.395 C 147.045 283.552,147.292 283.617,147.340 283.540 C 147.387 283.463,147.667 283.085,147.962 282.700 C 148.576 281.898,148.538 281.892,147.265 282.594 M145.400 283.893 C 144.384 284.148,142.288 285.621,142.558 285.891 C 142.670 286.003,143.055 285.802,143.413 285.444 C 143.771 285.086,144.230 284.895,144.432 285.020 C 144.635 285.145,144.800 285.057,144.800 284.824 C 144.800 284.591,145.059 284.400,145.376 284.400 C 145.693 284.400,146.064 284.220,146.200 284.000 C 146.336 283.780,146.392 283.621,146.324 283.646 C 146.256 283.672,145.840 283.783,145.400 283.893 M140.600 286.748 C 137.860 288.350,136.400 289.289,136.400 289.450 C 136.400 289.734,138.731 288.436,138.998 288.003 C 139.135 287.781,139.514 287.600,139.840 287.600 C 140.167 287.600,140.820 287.240,141.292 286.800 C 142.329 285.834,142.181 285.823,140.600 286.748 " stroke="none" fill="#245994" fill-rule="evenodd"></path><path id="path2" d="M164.400 129.827 C 164.400 129.911,164.985 130.282,165.700 130.652 C 166.799 131.220,166.921 131.228,166.487 130.705 C 166.021 130.144,164.400 129.462,164.400 129.827 M177.751 137.794 C 178.240 138.164,178.426 138.658,178.283 139.205 C 178.102 139.896,178.164 139.962,178.631 139.574 C 179.573 138.792,178.752 137.225,177.400 137.225 C 177.180 137.225,177.338 137.481,177.751 137.794 M174.394 141.618 C 173.847 142.039,173.580 142.380,173.800 142.378 C 174.329 142.373,175.791 141.258,175.565 141.031 C 175.468 140.934,174.941 141.198,174.394 141.618 M92.400 166.133 L 92.400 188.400 93.600 188.400 C 94.260 188.400,94.800 188.220,94.800 188.000 C 94.800 187.780,95.160 187.600,95.600 187.600 C 96.040 187.600,96.400 187.460,96.400 187.290 C 96.400 187.119,97.208 186.624,98.196 186.190 C 99.184 185.755,99.994 185.300,99.996 185.179 C 99.998 185.057,100.897 184.517,101.994 183.979 C 103.090 183.440,103.990 182.865,103.994 182.700 C 103.997 182.535,104.360 182.400,104.800 182.400 C 105.240 182.400,105.600 182.220,105.600 182.000 C 105.600 181.780,105.836 181.600,106.125 181.600 C 106.413 181.600,107.036 181.240,107.508 180.800 C 107.980 180.360,108.644 180.000,108.983 180.000 C 109.322 180.000,109.600 179.820,109.600 179.600 C 109.600 179.380,109.870 179.200,110.200 179.200 C 110.530 179.200,110.800 179.020,110.800 178.800 C 110.800 178.580,111.120 178.400,111.512 178.400 C 111.903 178.400,112.483 178.040,112.800 177.600 C 113.117 177.160,113.697 176.800,114.088 176.800 C 114.480 176.800,114.800 176.620,114.800 176.400 C 114.800 176.180,115.138 176.000,115.551 176.000 C 115.964 176.000,116.495 175.767,116.732 175.482 C 116.968 175.197,117.800 174.714,118.581 174.408 C 119.361 174.101,120.000 173.704,120.000 173.525 C 120.000 173.346,120.320 173.200,120.712 173.200 C 121.103 173.200,121.683 172.840,122.000 172.400 C 122.317 171.960,122.897 171.600,123.288 171.600 C 123.680 171.600,124.000 171.420,124.000 171.200 C 124.000 170.980,124.360 170.800,124.800 170.800 C 125.240 170.800,125.600 170.620,125.600 170.400 C 125.600 170.180,125.870 170.000,126.200 170.000 C 126.530 170.000,126.800 169.820,126.800 169.600 C 126.800 169.380,127.070 169.200,127.400 169.200 C 127.730 169.200,128.000 169.020,128.000 168.800 C 128.000 168.580,128.270 168.400,128.600 168.400 C 128.930 168.400,129.200 168.220,129.200 168.000 C 129.200 167.780,129.483 167.600,129.829 167.600 C 130.174 167.600,130.727 167.330,131.057 167.000 C 131.387 166.670,132.004 166.400,132.429 166.400 C 132.853 166.400,133.200 166.220,133.200 166.000 C 133.200 165.780,133.560 165.600,134.000 165.600 C 134.440 165.600,134.800 165.420,134.800 165.200 C 134.800 164.980,135.036 164.800,135.325 164.800 C 135.613 164.800,136.236 164.440,136.708 164.000 C 137.180 163.560,137.754 163.200,137.983 163.200 C 138.212 163.200,138.400 163.020,138.400 162.800 C 138.400 162.580,138.760 162.400,139.200 162.400 C 139.640 162.400,140.000 162.241,140.000 162.047 C 140.000 161.852,140.390 161.591,140.866 161.467 C 141.611 161.272,141.657 161.151,141.198 160.598 C 140.716 160.017,140.569 160.058,139.680 161.016 C 138.896 161.862,138.617 161.968,138.310 161.539 C 138.025 161.141,137.988 161.195,138.167 161.745 C 138.349 162.305,138.254 162.430,137.784 162.249 C 137.377 162.093,137.258 162.170,137.442 162.468 C 137.634 162.779,137.449 162.854,136.863 162.700 C 136.260 162.543,136.000 162.657,136.000 163.080 C 136.000 163.461,135.771 163.598,135.385 163.450 C 135.047 163.320,134.679 163.451,134.567 163.741 C 134.409 164.153,133.237 164.227,129.183 164.081 C 125.479 163.947,124.000 164.023,124.000 164.347 C 124.000 164.660,122.457 164.800,119.000 164.800 C 115.933 164.800,114.000 164.955,114.000 165.200 C 114.000 165.443,112.200 165.600,109.400 165.600 C 106.600 165.600,104.800 165.757,104.800 166.000 C 104.800 166.245,102.867 166.400,99.800 166.400 C 96.733 166.400,94.800 166.555,94.800 166.800 C 94.800 167.020,94.530 167.200,94.200 167.200 C 93.739 167.200,93.600 166.686,93.600 164.976 C 93.600 163.649,93.444 162.849,93.214 162.991 C 92.970 163.142,92.823 159.740,92.816 153.750 C 92.809 148.537,92.713 144.180,92.602 144.069 C 92.491 143.958,92.400 153.887,92.400 166.133 M159.376 150.187 C 158.889 150.556,158.797 150.779,159.129 150.787 C 159.419 150.794,159.927 150.530,160.257 150.200 C 161.028 149.429,160.391 149.420,159.376 150.187 M207.785 152.100 C 207.680 152.375,207.640 174.830,207.697 202.000 L 207.800 251.400 208.900 251.527 C 209.505 251.596,210.000 251.505,210.000 251.324 C 210.000 251.143,210.540 250.756,211.200 250.464 C 211.860 250.172,212.400 249.644,212.400 249.290 C 212.400 248.760,212.297 248.784,211.813 249.424 C 211.490 249.851,211.220 250.058,211.213 249.884 C 211.206 249.711,210.806 249.936,210.325 250.384 C 208.861 251.748,208.000 251.463,208.000 249.614 C 208.000 247.272,208.955 239.651,209.117 240.700 C 209.277 241.737,212.910 242.079,213.367 241.100 C 213.553 240.700,213.647 240.700,213.833 241.100 C 214.111 241.694,215.200 241.774,215.200 241.200 C 215.200 240.960,216.789 240.800,219.167 240.800 C 221.949 240.800,223.203 240.651,223.367 240.300 C 223.553 239.900,223.647 239.900,223.833 240.300 C 223.962 240.575,224.547 240.797,225.133 240.794 C 225.870 240.790,226.035 240.683,225.666 240.450 C 225.225 240.170,225.228 240.075,225.685 239.900 C 227.663 239.140,226.002 241.179,223.835 242.169 C 221.725 243.133,220.493 244.400,221.667 244.400 C 221.850 244.400,222.000 244.220,222.000 244.000 C 222.000 243.780,222.270 243.600,222.600 243.600 C 222.930 243.600,223.200 243.434,223.200 243.232 C 223.200 243.029,223.716 242.750,224.346 242.612 C 224.976 242.473,225.869 242.009,226.329 241.580 C 226.790 241.151,227.444 240.800,227.783 240.800 C 228.122 240.800,228.400 240.620,228.400 240.400 C 228.400 240.180,228.779 240.000,229.243 240.000 C 229.840 240.000,230.016 239.819,229.847 239.379 C 229.716 239.038,229.774 238.860,229.975 238.984 C 230.420 239.260,232.400 238.404,232.400 237.936 C 232.400 237.751,232.670 237.600,233.000 237.600 C 233.330 237.600,233.600 237.420,233.600 237.200 C 233.600 236.980,233.960 236.800,234.400 236.800 C 234.840 236.800,235.200 236.642,235.200 236.449 C 235.200 236.255,235.740 235.873,236.400 235.600 C 237.060 235.327,237.600 234.945,237.600 234.751 C 237.600 234.558,237.960 234.400,238.400 234.400 C 238.840 234.400,239.200 234.220,239.200 234.000 C 239.200 233.780,239.538 233.600,239.951 233.600 C 240.364 233.600,240.926 233.330,241.200 233.000 C 241.474 232.670,241.946 232.400,242.249 232.400 C 242.552 232.400,242.800 232.220,242.800 232.000 C 242.800 231.780,243.160 231.600,243.600 231.600 C 244.040 231.600,244.400 231.420,244.400 231.200 C 244.400 230.980,244.636 230.800,244.925 230.800 C 245.213 230.800,245.836 230.440,246.308 230.000 C 246.780 229.560,247.444 229.200,247.783 229.200 C 248.122 229.200,248.400 229.020,248.400 228.800 C 248.400 228.580,248.694 228.400,249.053 228.400 C 249.412 228.400,249.997 228.071,250.353 227.670 C 250.709 227.268,251.585 226.684,252.300 226.372 C 253.015 226.060,253.600 225.669,253.600 225.502 C 253.600 225.336,253.960 225.200,254.400 225.200 C 254.840 225.200,255.200 225.023,255.200 224.808 C 255.200 224.592,255.695 224.294,256.300 224.146 C 256.905 223.998,257.490 223.770,257.600 223.638 C 257.924 223.252,260.141 221.969,260.900 221.729 C 261.285 221.607,261.600 221.348,261.600 221.153 C 261.600 220.959,261.870 220.800,262.200 220.800 C 262.530 220.800,262.800 220.620,262.800 220.400 C 262.800 220.180,263.120 220.000,263.512 220.000 C 263.903 220.000,264.483 219.640,264.800 219.200 C 265.117 218.760,265.697 218.400,266.088 218.400 C 266.480 218.400,266.800 218.220,266.800 218.000 C 266.800 217.780,267.160 217.600,267.600 217.600 C 268.040 217.600,268.400 217.420,268.400 217.200 C 268.400 216.980,268.636 216.800,268.925 216.800 C 269.213 216.800,269.836 216.440,270.308 216.000 C 270.780 215.560,271.354 215.200,271.583 215.200 C 271.812 215.200,272.000 215.020,272.000 214.800 C 272.000 214.580,272.287 214.400,272.638 214.400 C 273.344 214.400,275.723 213.173,275.933 212.700 C 276.007 212.535,276.412 212.400,276.833 212.400 C 277.255 212.400,277.600 212.220,277.600 212.000 C 277.600 211.780,277.836 211.600,278.125 211.600 C 278.413 211.600,279.036 211.240,279.508 210.800 C 279.980 210.360,280.554 210.000,280.783 210.000 C 281.012 210.000,281.200 209.820,281.200 209.600 C 281.200 209.380,281.560 209.200,282.000 209.200 C 282.440 209.200,282.800 209.020,282.800 208.800 C 282.800 208.580,283.120 208.400,283.512 208.400 C 283.903 208.400,284.483 208.040,284.800 207.600 C 285.117 207.160,285.697 206.800,286.088 206.800 C 286.480 206.800,286.800 206.660,286.800 206.490 C 286.800 206.319,287.608 205.824,288.596 205.390 C 289.584 204.955,290.394 204.465,290.396 204.300 C 290.398 204.135,290.760 204.000,291.200 204.000 C 291.640 204.000,292.000 203.859,292.000 203.688 C 292.000 203.516,292.540 203.172,293.200 202.922 C 295.000 202.243,294.631 200.000,292.720 200.000 C 292.324 200.000,292.000 199.820,292.000 199.600 C 292.000 199.380,291.640 199.200,291.200 199.200 C 290.760 199.200,290.400 199.020,290.400 198.800 C 290.400 198.580,290.228 198.400,290.018 198.400 C 289.808 198.400,288.972 197.950,288.162 197.400 C 287.351 196.850,286.353 196.400,285.944 196.400 C 285.535 196.400,285.200 196.220,285.200 196.000 C 285.200 195.780,284.964 195.600,284.675 195.600 C 284.387 195.600,283.764 195.240,283.292 194.800 C 282.820 194.360,282.156 194.000,281.817 194.000 C 281.478 194.000,281.200 193.820,281.200 193.600 C 281.200 193.380,280.964 193.200,280.675 193.200 C 280.387 193.200,279.764 192.840,279.292 192.400 C 278.820 191.960,278.246 191.600,278.017 191.600 C 277.788 191.600,277.600 191.420,277.600 191.200 C 277.600 190.980,277.240 190.800,276.800 190.800 C 276.360 190.800,276.000 190.620,276.000 190.400 C 276.000 190.180,275.722 190.000,275.383 190.000 C 275.044 190.000,274.380 189.640,273.908 189.200 C 273.436 188.760,272.813 188.400,272.525 188.400 C 272.236 188.400,272.000 188.257,272.000 188.082 C 272.000 187.907,271.190 187.430,270.200 187.022 C 269.210 186.613,268.400 186.127,268.400 185.940 C 268.400 185.753,268.040 185.600,267.600 185.600 C 267.160 185.600,266.800 185.420,266.800 185.200 C 266.800 184.980,266.440 184.800,266.000 184.800 C 265.560 184.800,265.200 184.620,265.200 184.400 C 265.200 184.180,264.906 184.000,264.547 184.000 C 264.188 184.000,263.603 183.671,263.247 183.270 C 262.891 182.868,262.015 182.284,261.300 181.972 C 260.585 181.660,260.000 181.269,260.000 181.102 C 260.000 180.936,259.722 180.800,259.383 180.800 C 259.044 180.800,258.380 180.440,257.908 180.000 C 257.436 179.560,256.813 179.200,256.525 179.200 C 256.236 179.200,256.000 179.020,256.000 178.800 C 256.000 178.580,255.640 178.400,255.200 178.400 C 254.760 178.400,254.400 178.223,254.400 178.008 C 254.400 177.792,253.950 177.502,253.400 177.364 C 252.850 177.226,252.400 176.953,252.400 176.757 C 252.400 176.560,252.040 176.400,251.600 176.400 C 251.160 176.400,250.800 176.220,250.800 176.000 C 250.800 175.780,250.480 175.600,250.088 175.600 C 249.697 175.600,249.117 175.240,248.800 174.800 C 248.483 174.360,247.903 174.000,247.512 174.000 C 247.120 174.000,246.800 173.820,246.800 173.600 C 246.800 173.380,246.440 173.200,246.000 173.200 C 245.560 173.200,245.200 173.020,245.200 172.800 C 245.200 172.580,244.906 172.400,244.547 172.400 C 244.188 172.400,243.603 172.077,243.247 171.681 C 242.891 171.286,241.568 170.465,240.308 169.856 C 239.047 169.247,237.911 168.580,237.784 168.374 C 237.657 168.168,237.203 168.000,236.776 168.000 C 236.349 168.000,236.000 167.820,236.000 167.600 C 236.000 167.380,235.640 167.200,235.200 167.200 C 234.760 167.200,234.400 167.020,234.400 166.800 C 234.400 166.580,234.212 166.400,233.983 166.400 C 233.754 166.400,233.180 166.040,232.708 165.600 C 232.236 165.160,231.613 164.800,231.325 164.800 C 231.036 164.800,230.800 164.620,230.800 164.400 C 230.800 164.180,230.440 164.000,230.000 164.000 C 229.560 164.000,229.200 163.820,229.200 163.600 C 229.200 163.380,228.964 163.200,228.675 163.200 C 228.387 163.200,227.764 162.840,227.292 162.400 C 226.820 161.960,226.156 161.600,225.817 161.600 C 225.478 161.600,225.200 161.420,225.200 161.200 C 225.200 160.980,225.007 160.800,224.772 160.800 C 224.537 160.800,223.574 160.270,222.633 159.623 C 221.693 158.976,220.400 158.317,219.761 158.159 C 219.123 158.001,218.309 157.541,217.953 157.136 C 217.597 156.731,217.012 156.400,216.653 156.400 C 216.294 156.400,216.000 156.220,216.000 156.000 C 216.000 155.780,215.640 155.600,215.200 155.600 C 214.760 155.600,214.400 155.420,214.400 155.200 C 214.400 154.980,214.130 154.800,213.800 154.800 C 213.470 154.800,213.200 154.620,213.200 154.400 C 213.200 154.180,212.930 154.000,212.600 154.000 C 212.270 154.000,212.000 153.799,212.000 153.553 C 212.000 153.308,211.653 153.197,211.230 153.308 C 210.690 153.449,210.523 153.344,210.673 152.955 C 210.813 152.590,210.597 152.400,210.043 152.400 C 209.579 152.400,209.200 152.220,209.200 152.000 C 209.200 151.423,208.010 151.507,207.785 152.100 M154.500 152.998 C 153.757 153.842,153.894 154.073,154.800 153.507 C 155.240 153.232,155.600 152.871,155.600 152.704 C 155.600 152.227,155.049 152.375,154.500 152.998 M209.893 153.200 C 210.270 153.640,210.898 154.000,211.289 154.000 C 211.680 154.000,212.000 154.180,212.000 154.400 C 212.000 154.620,212.227 154.800,212.505 154.800 C 212.783 154.800,213.188 155.205,213.405 155.700 C 213.659 156.278,214.122 156.583,214.700 156.552 C 215.195 156.526,215.600 156.671,215.600 156.876 C 215.600 157.080,215.825 157.118,216.100 156.959 C 216.379 156.799,216.458 156.827,216.279 157.024 C 216.102 157.218,215.337 157.323,214.579 157.257 C 213.787 157.189,213.200 157.322,213.200 157.569 C 213.200 158.101,209.240 158.139,208.411 157.615 C 207.911 157.299,207.931 157.201,208.545 156.966 C 208.991 156.794,209.103 156.587,208.837 156.423 C 208.600 156.276,208.290 155.311,208.149 154.278 C 207.858 152.156,208.604 151.694,209.893 153.200 M150.800 155.224 C 150.800 155.457,150.620 155.536,150.400 155.400 C 150.180 155.264,150.000 155.343,150.000 155.576 C 150.000 155.809,149.713 156.000,149.363 156.000 C 149.013 156.000,148.251 156.374,147.670 156.831 L 146.613 157.662 147.803 157.364 C 148.457 157.199,149.220 156.837,149.498 156.559 C 149.777 156.280,150.364 155.938,150.802 155.799 C 151.622 155.539,151.916 154.800,151.200 154.800 C 150.980 154.800,150.800 154.991,150.800 155.224 M144.600 158.411 C 143.854 158.694,143.848 158.734,144.517 159.006 C 145.291 159.322,145.769 159.076,145.542 158.479 C 145.464 158.274,145.040 158.244,144.600 158.411 M141.314 160.142 C 141.532 160.795,142.400 160.922,142.400 160.300 C 142.400 159.988,142.125 159.733,141.789 159.733 C 141.453 159.733,141.239 159.917,141.314 160.142 M92.667 215.067 C 92.520 215.213,92.434 225.068,92.477 236.967 C 92.519 248.865,92.654 256.890,92.777 254.800 C 92.899 252.710,93.129 251.090,93.287 251.200 C 93.445 251.310,93.975 251.056,94.466 250.636 C 95.052 250.134,95.411 250.032,95.512 250.336 C 95.701 250.903,97.200 250.959,97.200 250.400 C 97.200 250.162,98.722 250.000,100.967 250.000 C 103.589 250.000,104.804 249.848,104.967 249.500 C 105.153 249.100,105.247 249.100,105.433 249.500 C 105.710 250.093,107.200 250.177,107.200 249.600 C 107.200 249.362,108.722 249.200,110.967 249.200 C 113.589 249.200,114.804 249.048,114.967 248.700 C 115.153 248.300,115.247 248.300,115.433 248.700 C 115.710 249.293,117.200 249.377,117.200 248.800 C 117.200 248.562,118.722 248.400,120.967 248.400 C 123.589 248.400,124.804 248.248,124.967 247.900 C 125.153 247.500,125.247 247.500,125.433 247.900 C 125.710 248.493,127.200 248.577,127.200 248.000 C 127.200 247.762,128.722 247.600,130.967 247.600 C 133.589 247.600,134.804 247.448,134.967 247.100 C 135.153 246.700,135.247 246.700,135.433 247.100 C 135.710 247.693,137.200 247.777,137.200 247.200 C 137.200 246.965,138.600 246.800,140.600 246.800 C 143.356 246.800,144.000 246.686,144.000 246.200 C 144.000 245.870,144.180 245.600,144.400 245.600 C 144.620 245.600,144.800 245.873,144.800 246.206 C 144.800 246.629,145.151 246.786,145.960 246.724 C 146.598 246.676,147.408 246.875,147.760 247.167 C 148.251 247.574,148.400 247.582,148.400 247.202 C 148.400 246.902,148.914 247.085,149.700 247.666 C 151.722 249.161,153.200 249.720,153.200 248.991 C 153.200 248.666,152.840 248.400,152.400 248.400 C 151.960 248.400,151.600 248.220,151.600 248.000 C 151.600 247.780,151.322 247.600,150.983 247.600 C 150.644 247.600,149.980 247.240,149.508 246.800 C 149.036 246.360,148.413 246.000,148.125 246.000 C 147.836 246.000,147.598 245.865,147.595 245.700 C 147.592 245.535,146.422 244.860,144.995 244.200 C 143.568 243.540,142.400 242.865,142.400 242.700 C 142.400 242.535,142.040 242.400,141.600 242.400 C 141.160 242.400,140.800 242.220,140.800 242.000 C 140.800 241.780,140.506 241.600,140.147 241.600 C 139.788 241.600,139.203 241.271,138.847 240.870 C 138.491 240.468,137.615 239.884,136.900 239.572 C 136.185 239.260,135.600 238.869,135.600 238.702 C 135.600 238.536,135.280 238.400,134.888 238.400 C 134.497 238.400,133.917 238.040,133.600 237.600 C 133.283 237.160,132.703 236.800,132.312 236.800 C 131.920 236.800,131.600 236.620,131.600 236.400 C 131.600 236.180,131.240 236.000,130.800 236.000 C 130.360 236.000,130.000 235.838,130.000 235.640 C 130.000 235.441,129.191 234.946,128.201 234.540 C 127.212 234.133,126.402 233.665,126.401 233.500 C 126.401 233.335,126.080 233.200,125.688 233.200 C 125.297 233.200,124.717 232.840,124.400 232.400 C 124.083 231.960,123.503 231.600,123.112 231.600 C 122.720 231.600,122.400 231.420,122.400 231.200 C 122.400 230.980,122.040 230.800,121.600 230.800 C 121.160 230.800,120.800 230.620,120.800 230.400 C 120.800 230.180,120.522 230.000,120.183 230.000 C 119.844 230.000,119.180 229.640,118.708 229.200 C 118.236 228.760,117.344 228.176,116.725 227.903 C 116.106 227.629,115.600 227.269,115.600 227.102 C 115.600 226.936,115.240 226.800,114.800 226.800 C 114.360 226.800,114.000 226.653,114.000 226.474 C 114.000 226.076,111.399 224.800,110.586 224.800 C 110.264 224.800,110.000 224.620,110.000 224.400 C 110.000 224.180,109.812 224.000,109.583 224.000 C 109.354 224.000,108.780 223.640,108.308 223.200 C 107.836 222.760,107.213 222.400,106.925 222.400 C 106.636 222.400,106.400 222.220,106.400 222.000 C 106.400 221.780,106.040 221.600,105.600 221.600 C 105.160 221.600,104.800 221.420,104.800 221.200 C 104.800 220.980,104.564 220.800,104.275 220.800 C 103.987 220.800,103.364 220.440,102.892 220.000 C 102.420 219.560,101.756 219.200,101.417 219.200 C 101.078 219.200,100.800 219.020,100.800 218.800 C 100.800 218.580,100.603 218.400,100.362 218.400 C 100.121 218.400,99.441 218.056,98.850 217.636 C 96.032 215.629,93.257 214.476,92.667 215.067 M305.000 217.600 C 304.602 218.040,303.944 218.400,303.538 218.400 C 303.132 218.400,302.800 218.580,302.800 218.800 C 302.800 219.020,302.570 219.200,302.288 219.200 C 302.007 219.200,301.517 219.560,301.200 220.000 C 300.883 220.440,300.303 220.800,299.912 220.800 C 299.520 220.800,299.200 220.980,299.200 221.200 C 299.200 221.420,298.840 221.600,298.400 221.600 C 297.960 221.600,297.600 221.780,297.600 222.000 C 297.600 222.220,297.364 222.400,297.075 222.400 C 296.787 222.400,296.164 222.760,295.692 223.200 C 295.220 223.640,294.556 224.000,294.217 224.000 C 293.878 224.000,293.600 224.157,293.600 224.350 C 293.600 224.543,293.105 224.800,292.500 224.923 C 291.895 225.045,291.003 225.517,290.517 225.973 C 290.031 226.428,289.356 226.800,289.017 226.800 C 288.678 226.800,288.400 226.980,288.400 227.200 C 288.400 227.420,288.040 227.600,287.600 227.600 C 287.160 227.600,286.800 227.780,286.800 228.000 C 286.800 228.220,286.564 228.400,286.275 228.400 C 285.987 228.400,285.364 228.760,284.892 229.200 C 284.420 229.640,283.756 230.000,283.417 230.000 C 283.078 230.000,282.800 230.180,282.800 230.400 C 282.800 230.620,282.530 230.800,282.200 230.800 C 281.870 230.800,281.600 230.980,281.600 231.200 C 281.600 231.420,281.280 231.600,280.888 231.600 C 280.497 231.600,279.917 231.960,279.600 232.400 C 279.283 232.840,278.703 233.200,278.312 233.200 C 277.920 233.200,277.600 233.380,277.600 233.600 C 277.600 233.820,277.265 234.000,276.856 234.000 C 276.447 234.000,275.449 234.450,274.638 235.000 C 273.828 235.550,272.992 236.000,272.782 236.000 C 272.572 236.000,272.386 236.405,272.368 236.900 C 272.351 237.395,272.246 237.575,272.135 237.300 C 271.896 236.706,270.800 236.624,270.800 237.200 C 270.800 237.420,270.480 237.600,270.088 237.600 C 269.697 237.600,269.117 237.960,268.800 238.400 C 268.483 238.840,267.903 239.200,267.512 239.200 C 267.120 239.200,266.800 239.336,266.800 239.502 C 266.800 239.669,266.215 240.063,265.500 240.378 C 263.810 241.123,262.875 242.000,263.771 242.000 C 264.117 242.000,264.400 241.820,264.400 241.600 C 264.400 241.380,264.670 241.200,265.000 241.200 C 265.330 241.200,265.600 241.009,265.600 240.776 C 265.600 240.543,265.765 240.455,265.968 240.580 C 266.170 240.705,266.598 240.545,266.919 240.223 C 267.241 239.902,267.975 239.521,268.552 239.376 C 269.128 239.232,269.600 238.953,269.600 238.757 C 269.600 238.560,269.947 238.400,270.371 238.400 C 270.795 238.400,271.224 238.085,271.324 237.700 C 271.497 237.040,271.510 237.041,271.554 237.708 C 271.606 238.514,274.648 237.264,275.023 236.282 C 275.151 235.945,276.186 235.840,278.460 235.932 C 280.836 236.029,281.814 235.921,282.087 235.532 C 282.380 235.116,282.505 235.109,282.664 235.500 C 282.904 236.093,284.400 236.179,284.400 235.600 C 284.400 235.362,285.922 235.200,288.167 235.200 C 290.789 235.200,292.004 235.048,292.167 234.700 C 292.353 234.300,292.447 234.300,292.633 234.700 C 292.910 235.293,294.400 235.377,294.400 234.800 C 294.400 234.562,295.922 234.400,298.167 234.400 C 300.789 234.400,302.004 234.248,302.167 233.900 C 302.353 233.500,302.447 233.500,302.633 233.900 C 302.910 234.493,304.400 234.577,304.400 234.000 C 304.400 233.780,304.766 233.600,305.213 233.600 C 305.682 233.600,306.179 233.219,306.388 232.700 C 306.690 231.947,306.753 232.077,306.775 233.500 C 306.789 234.435,306.980 235.200,307.200 235.200 C 307.455 235.200,307.600 231.867,307.600 226.000 L 307.600 216.800 306.662 216.800 C 306.146 216.800,305.398 217.160,305.000 217.600 M219.243 244.823 C 218.717 245.261,218.427 245.751,218.598 245.910 C 218.769 246.070,218.990 245.975,219.088 245.700 C 219.186 245.425,219.612 245.200,220.033 245.200 C 220.455 245.200,220.800 244.930,220.800 244.600 C 220.800 243.804,220.399 243.861,219.243 244.823 M258.026 244.569 C 257.639 245.035,257.703 245.098,258.383 244.920 C 259.384 244.659,259.877 244.000,259.073 244.000 C 258.757 244.000,258.286 244.256,258.026 244.569 M254.907 246.147 C 253.976 246.616,253.211 247.150,253.207 247.333 C 253.203 247.517,253.335 247.595,253.500 247.508 C 253.665 247.421,254.563 247.001,255.496 246.575 C 256.429 246.149,257.194 245.665,257.196 245.500 C 257.202 245.074,256.824 245.180,254.907 246.147 M215.500 247.029 C 214.417 247.616,214.017 248.400,214.800 248.400 C 215.020 248.400,215.200 248.220,215.200 248.000 C 215.200 247.780,215.560 247.600,216.000 247.600 C 216.444 247.600,216.800 247.333,216.800 247.000 C 216.800 246.286,216.873 246.284,215.500 247.029 M153.884 249.449 C 153.735 249.599,153.925 249.958,154.306 250.248 C 155.156 250.893,155.600 250.937,155.600 250.376 C 155.600 250.143,155.431 250.057,155.225 250.185 C 155.018 250.312,154.693 250.138,154.502 249.797 C 154.312 249.456,154.033 249.300,153.884 249.449 M160.400 253.396 C 160.400 253.709,164.033 255.700,164.235 255.498 C 164.345 255.389,163.841 254.952,163.117 254.527 C 161.627 253.653,160.400 253.142,160.400 253.396 M236.629 256.609 C 236.205 256.929,235.938 257.271,236.035 257.369 C 236.132 257.466,236.659 257.202,237.206 256.782 C 237.753 256.361,238.020 256.020,237.800 256.022 C 237.580 256.024,237.053 256.288,236.629 256.609 M178.540 263.788 C 178.664 264.112,178.482 264.661,178.135 265.007 C 177.789 265.354,177.618 265.751,177.757 265.890 C 178.105 266.238,179.172 264.755,179.187 263.900 C 179.194 263.515,179.001 263.200,178.757 263.200 C 178.514 263.200,178.416 263.465,178.540 263.788 M170.408 269.630 C 168.868 270.452,168.481 270.800,169.108 270.800 C 169.599 270.800,170.000 270.620,170.000 270.400 C 170.000 270.180,170.278 270.000,170.617 270.000 C 170.956 270.000,171.620 269.640,172.092 269.200 C 173.186 268.181,173.062 268.213,170.408 269.630 M152.300 280.229 C 150.749 281.070,150.925 281.361,152.500 280.559 C 154.008 279.793,154.275 279.594,153.767 279.616 C 153.565 279.625,152.905 279.901,152.300 280.229 M92.581 295.200 C 92.581 303.230,92.634 306.515,92.699 302.500 C 92.765 298.485,92.765 291.915,92.699 287.900 C 92.634 283.885,92.581 287.170,92.581 295.200 M148.800 301.833 C 148.242 302.143,148.065 302.385,148.400 302.381 C 148.730 302.378,149.349 302.110,149.776 301.787 C 150.739 301.059,150.145 301.087,148.800 301.833 " stroke="none" fill="#075b8f" fill-rule="evenodd"></path><path id="path3" d="M306.000 314.800 C 306.000 315.043,304.200 315.200,301.400 315.200 C 298.600 315.200,296.800 315.357,296.800 315.600 C 296.800 315.845,294.867 316.000,291.800 316.000 C 288.733 316.000,286.800 316.155,286.800 316.400 C 286.800 316.645,284.867 316.800,281.800 316.800 C 278.733 316.800,276.800 316.955,276.800 317.200 C 276.800 317.445,274.867 317.600,271.800 317.600 C 268.733 317.600,266.800 317.755,266.800 318.000 C 266.800 318.243,265.000 318.400,262.200 318.400 C 259.670 318.400,257.600 318.559,257.600 318.753 C 257.600 318.947,253.100 319.238,247.600 319.400 C 242.100 319.562,237.600 319.853,237.600 320.047 C 237.600 320.241,235.350 320.400,232.600 320.400 C 229.533 320.400,227.600 320.555,227.600 320.800 C 227.600 321.045,225.667 321.200,222.600 321.200 C 219.533 321.200,217.600 321.355,217.600 321.600 C 217.600 321.839,216.067 322.000,213.800 322.000 L 210.000 322.000 209.937 323.900 L 209.874 325.800 209.600 323.800 L 209.326 321.800 209.263 323.900 C 209.228 325.055,209.019 326.000,208.797 326.000 C 208.529 326.000,208.429 334.241,208.497 350.500 C 208.607 376.591,208.561 376.016,210.400 374.583 C 210.730 374.326,211.945 373.595,213.100 372.958 C 214.254 372.321,215.199 371.665,215.200 371.500 C 215.200 371.335,215.560 371.200,216.000 371.200 C 216.440 371.200,216.800 371.041,216.800 370.847 C 216.800 370.652,217.115 370.393,217.500 370.271 C 218.185 370.054,220.404 368.796,220.800 368.400 C 221.278 367.922,222.839 367.200,223.395 367.200 C 223.728 367.200,224.000 367.041,224.000 366.848 C 224.000 366.654,225.035 365.979,226.300 365.348 C 227.565 364.717,229.346 363.705,230.258 363.100 C 231.170 362.495,232.235 362.000,232.625 362.000 C 233.014 362.000,233.216 361.883,233.073 361.739 C 232.929 361.596,233.214 361.268,233.706 361.010 C 235.267 360.193,236.593 359.407,236.800 359.179 C 236.910 359.058,237.630 358.651,238.400 358.276 C 239.170 357.901,241.240 356.775,243.000 355.773 C 244.760 354.772,246.515 353.852,246.900 353.729 C 247.285 353.607,247.600 353.381,247.600 353.228 C 247.600 353.075,248.230 352.702,249.000 352.400 C 249.770 352.098,250.400 351.704,250.400 351.525 C 250.400 351.346,250.670 351.200,251.000 351.200 C 251.330 351.200,251.600 351.020,251.600 350.800 C 251.600 350.580,251.870 350.400,252.200 350.400 C 252.530 350.400,252.800 350.220,252.800 350.000 C 252.800 349.780,253.160 349.600,253.600 349.600 C 254.040 349.600,254.400 349.420,254.400 349.200 C 254.400 348.980,254.760 348.800,255.200 348.800 C 255.640 348.800,256.000 348.632,256.000 348.427 C 256.000 348.047,257.554 347.377,258.100 347.521 C 258.265 347.564,258.400 347.423,258.400 347.207 C 258.400 346.665,262.228 344.768,262.615 345.118 C 262.787 345.273,262.799 345.175,262.641 344.900 C 262.463 344.591,262.591 344.400,262.976 344.400 C 263.319 344.400,263.600 344.264,263.600 344.098 C 263.600 343.931,264.185 343.542,264.900 343.232 C 265.615 342.923,266.952 342.159,267.872 341.535 C 268.792 340.911,269.737 340.400,269.972 340.400 C 270.207 340.400,270.400 340.220,270.400 340.000 C 270.400 339.780,270.760 339.600,271.200 339.600 C 271.640 339.600,272.000 339.420,272.000 339.200 C 272.000 338.980,272.270 338.800,272.600 338.800 C 272.930 338.800,273.200 338.620,273.200 338.400 C 273.200 338.180,273.455 338.000,273.767 338.000 C 274.078 338.000,274.393 337.865,274.467 337.700 C 274.622 337.350,277.608 335.839,278.207 335.807 C 278.431 335.795,279.023 335.377,279.522 334.878 C 280.021 334.379,280.603 334.078,280.815 334.209 C 281.027 334.340,281.200 334.257,281.200 334.024 C 281.200 333.791,281.436 333.600,281.725 333.600 C 282.013 333.600,282.598 333.283,283.025 332.896 C 283.451 332.509,284.655 331.744,285.700 331.197 C 286.745 330.649,287.600 330.066,287.600 329.901 C 287.600 329.735,287.960 329.600,288.400 329.600 C 288.840 329.600,289.200 329.420,289.200 329.200 C 289.200 328.980,289.470 328.800,289.800 328.800 C 290.130 328.800,290.400 328.620,290.400 328.400 C 290.400 328.180,290.760 328.000,291.200 328.000 C 291.640 328.000,292.001 327.865,292.003 327.700 C 292.008 327.268,294.048 326.382,294.456 326.635 C 294.645 326.752,294.800 326.689,294.800 326.495 C 294.800 326.113,297.856 324.000,298.407 324.000 C 298.592 324.000,298.988 323.775,299.288 323.500 C 300.078 322.776,301.220 322.067,302.673 321.398 C 303.373 321.076,304.060 320.626,304.200 320.400 C 304.341 320.173,304.627 320.093,304.838 320.223 C 305.048 320.353,305.170 320.221,305.110 319.930 C 305.043 319.609,305.293 319.450,305.740 319.527 C 306.147 319.596,306.391 319.506,306.282 319.327 C 306.058 318.958,307.011 317.944,307.305 318.238 C 307.489 318.422,307.341 317.131,306.968 315.300 C 306.789 314.419,306.000 314.011,306.000 314.800 M188.400 324.000 C 188.400 324.245,186.467 324.400,183.400 324.400 C 180.333 324.400,178.400 324.555,178.400 324.800 C 178.400 325.045,176.467 325.200,173.400 325.200 C 170.333 325.200,168.400 325.355,168.400 325.600 C 168.400 325.845,166.467 326.000,163.400 326.000 C 160.333 326.000,158.400 326.155,158.400 326.400 C 158.400 326.645,156.467 326.800,153.400 326.800 C 150.333 326.800,148.400 326.955,148.400 327.200 C 148.400 327.443,146.600 327.600,143.800 327.600 C 141.270 327.600,139.200 327.759,139.200 327.953 C 139.200 328.147,134.700 328.438,129.200 328.600 C 123.700 328.762,119.200 329.041,119.200 329.221 C 119.200 329.400,117.400 329.604,115.199 329.673 C 112.999 329.743,111.199 329.665,111.199 329.500 C 111.200 329.335,110.960 329.200,110.667 329.200 C 110.373 329.200,110.133 329.462,110.133 329.782 C 110.133 330.103,110.295 330.265,110.493 330.142 C 110.691 330.020,111.086 330.238,111.370 330.627 C 111.654 331.015,112.317 331.382,112.843 331.441 C 113.370 331.501,113.575 331.456,113.300 331.341 C 113.025 331.227,112.800 330.940,112.800 330.705 C 112.800 330.469,113.115 330.550,113.500 330.886 C 113.885 331.221,114.470 331.595,114.800 331.716 C 115.171 331.853,115.208 331.949,114.897 331.968 C 114.502 331.993,114.496 332.165,114.868 332.760 C 115.129 333.178,115.581 333.429,115.871 333.317 C 116.179 333.199,116.400 333.393,116.400 333.781 C 116.400 334.147,116.568 334.344,116.772 334.217 C 116.977 334.091,117.258 334.170,117.396 334.393 C 117.534 334.617,117.997 334.800,118.424 334.800 C 118.851 334.800,119.200 335.070,119.200 335.400 C 119.200 335.730,119.425 335.955,119.700 335.900 C 119.975 335.845,120.157 336.019,120.105 336.286 C 120.049 336.572,120.262 336.675,120.625 336.535 C 120.964 336.405,121.637 336.656,122.120 337.092 C 122.604 337.529,123.585 338.136,124.300 338.441 C 125.015 338.746,125.600 339.131,125.600 339.298 C 125.600 339.464,125.870 339.600,126.200 339.600 C 126.530 339.600,126.800 339.791,126.800 340.024 C 126.800 340.257,126.981 340.335,127.203 340.198 C 127.424 340.061,127.714 340.231,127.846 340.575 C 127.978 340.919,128.426 341.200,128.843 341.200 C 129.259 341.200,129.600 341.341,129.600 341.512 C 129.600 341.684,130.156 342.035,130.837 342.291 C 131.677 342.609,131.977 342.925,131.772 343.279 C 131.607 343.566,131.614 343.671,131.788 343.514 C 131.963 343.357,132.487 343.440,132.953 343.700 C 133.419 343.959,133.926 344.178,134.080 344.186 C 134.234 344.194,134.585 344.425,134.860 344.700 C 135.135 344.975,135.554 345.200,135.792 345.200 C 136.029 345.200,136.476 345.550,136.785 345.979 C 137.093 346.407,137.482 346.673,137.648 346.570 C 137.814 346.468,138.726 346.842,139.675 347.401 C 140.624 347.961,141.985 348.718,142.700 349.083 C 143.415 349.449,144.000 349.895,144.000 350.074 C 144.000 350.253,144.326 350.400,144.725 350.400 C 145.123 350.400,145.798 350.715,146.225 351.101 C 146.651 351.486,147.850 352.231,148.888 352.757 C 149.989 353.315,150.671 353.899,150.524 354.157 C 150.385 354.401,150.405 354.480,150.568 354.334 C 150.880 354.055,156.903 357.123,157.133 357.679 C 157.207 357.855,157.612 358.000,158.033 358.000 C 158.455 358.000,158.800 358.136,158.800 358.302 C 158.800 358.469,159.341 358.844,160.002 359.137 C 160.664 359.430,161.100 359.838,160.973 360.044 C 160.845 360.251,160.897 360.370,161.089 360.310 C 161.444 360.198,165.235 361.985,165.600 362.436 C 165.710 362.572,166.925 363.284,168.300 364.018 C 169.675 364.752,170.800 365.509,170.800 365.700 C 170.800 365.891,170.981 365.935,171.203 365.798 C 171.424 365.661,171.709 365.819,171.836 366.149 C 171.963 366.479,172.321 366.652,172.633 366.532 C 172.945 366.412,173.200 366.514,173.200 366.757 C 173.200 367.001,173.560 367.200,174.000 367.200 C 174.440 367.200,174.800 367.380,174.800 367.600 C 174.800 367.820,175.036 368.000,175.325 368.000 C 175.613 368.000,176.198 368.315,176.625 368.700 C 177.051 369.085,177.940 369.664,178.600 369.988 C 179.260 370.311,180.520 371.043,181.400 371.614 C 182.280 372.186,183.650 372.953,184.445 373.319 C 185.240 373.686,186.115 374.257,186.390 374.588 C 186.665 374.920,187.050 375.093,187.245 374.972 C 187.440 374.851,187.600 374.943,187.600 375.176 C 187.600 375.409,187.950 375.600,188.377 375.600 C 188.805 375.600,189.417 375.975,189.738 376.433 C 190.114 376.969,190.656 377.219,191.261 377.133 L 192.200 377.000 192.324 357.000 C 192.467 333.773,192.212 325.544,191.360 325.871 C 190.954 326.026,190.800 325.744,190.800 324.843 C 190.800 323.729,190.676 323.600,189.600 323.600 C 188.940 323.600,188.400 323.780,188.400 324.000 " stroke="none" fill="#5c5ca2" fill-rule="evenodd"></path><path id="path4" d="M306.871 281.687 C 306.799 283.188,305.994 283.430,305.070 282.229 C 304.840 281.931,304.677 281.953,304.536 282.300 C 304.396 282.644,303.285 282.800,300.967 282.800 C 298.989 282.800,297.600 282.965,297.600 283.200 C 297.600 283.777,296.110 283.693,295.833 283.100 C 295.647 282.700,295.553 282.700,295.367 283.100 C 295.204 283.448,293.989 283.600,291.367 283.600 C 289.122 283.600,287.600 283.762,287.600 284.000 C 287.600 284.577,286.110 284.493,285.833 283.900 C 285.647 283.500,285.553 283.500,285.367 283.900 C 285.204 284.248,283.989 284.400,281.367 284.400 C 279.122 284.400,277.600 284.562,277.600 284.800 C 277.600 285.377,276.110 285.293,275.833 284.700 C 275.647 284.300,275.553 284.300,275.367 284.700 C 275.204 285.048,273.989 285.200,271.367 285.200 C 269.122 285.200,267.600 285.362,267.600 285.600 C 267.600 286.177,266.110 286.093,265.833 285.500 C 265.647 285.100,265.553 285.100,265.367 285.500 C 265.204 285.848,263.989 286.000,261.367 286.000 C 259.122 286.000,257.600 286.162,257.600 286.400 C 257.600 286.977,256.110 286.893,255.833 286.300 C 255.647 285.900,255.553 285.900,255.367 286.300 C 255.207 286.642,254.069 286.800,251.767 286.800 C 249.789 286.800,248.400 286.965,248.400 287.200 C 248.400 287.781,246.109 287.692,245.833 287.100 C 245.647 286.700,245.553 286.700,245.367 287.100 C 245.207 287.442,244.069 287.600,241.767 287.600 C 239.789 287.600,238.400 287.765,238.400 288.000 C 238.400 288.577,236.910 288.493,236.633 287.900 C 236.447 287.500,236.353 287.500,236.167 287.900 C 236.004 288.248,234.789 288.400,232.167 288.400 C 229.922 288.400,228.400 288.562,228.400 288.800 C 228.400 289.377,226.910 289.293,226.633 288.700 C 226.447 288.300,226.353 288.300,226.167 288.700 C 226.004 289.048,224.789 289.200,222.167 289.200 C 219.922 289.200,218.400 289.362,218.400 289.600 C 218.400 290.177,216.910 290.093,216.633 289.500 C 216.447 289.100,216.353 289.100,216.167 289.500 C 216.011 289.833,214.958 290.000,213.013 290.000 C 209.757 290.000,209.617 290.135,209.605 293.300 C 209.595 296.251,208.830 294.735,208.698 291.500 C 208.623 289.685,208.526 296.705,208.481 307.100 C 208.428 319.488,208.538 326.000,208.800 326.000 C 209.020 326.000,209.228 325.055,209.263 323.900 L 209.326 321.800 209.600 323.800 L 209.874 325.800 209.937 323.900 L 210.000 322.000 213.800 322.000 C 216.067 322.000,217.600 321.839,217.600 321.600 C 217.600 321.355,219.533 321.200,222.600 321.200 C 225.667 321.200,227.600 321.045,227.600 320.800 C 227.600 320.555,229.533 320.400,232.600 320.400 C 235.350 320.400,237.600 320.241,237.600 320.047 C 237.600 319.853,242.100 319.562,247.600 319.400 C 253.100 319.238,257.600 318.947,257.600 318.753 C 257.600 318.559,259.670 318.400,262.200 318.400 C 265.000 318.400,266.800 318.243,266.800 318.000 C 266.800 317.755,268.733 317.600,271.800 317.600 C 274.867 317.600,276.800 317.445,276.800 317.200 C 276.800 316.955,278.733 316.800,281.800 316.800 C 284.867 316.800,286.800 316.645,286.800 316.400 C 286.800 316.155,288.733 316.000,291.800 316.000 C 294.867 316.000,296.800 315.845,296.800 315.600 C 296.800 315.357,298.600 315.200,301.400 315.200 C 304.200 315.200,306.000 315.043,306.000 314.800 C 306.000 313.872,306.807 314.502,307.152 315.700 C 307.408 316.584,307.523 313.412,307.514 305.800 C 307.501 295.533,307.039 278.194,306.871 281.687 M186.000 291.600 C 186.000 291.835,184.600 292.000,182.600 292.000 C 180.600 292.000,179.200 292.165,179.200 292.400 C 179.200 292.977,177.710 292.893,177.433 292.300 C 177.247 291.900,177.153 291.900,176.967 292.300 C 176.804 292.648,175.589 292.800,172.967 292.800 C 170.722 292.800,169.200 292.962,169.200 293.200 C 169.200 293.420,168.570 293.600,167.800 293.600 C 167.030 293.600,166.400 293.788,166.400 294.018 C 166.400 294.247,166.175 294.389,165.900 294.334 C 165.625 294.278,164.972 294.469,164.449 294.757 C 163.693 295.175,163.435 295.180,163.190 294.783 C 162.977 294.439,162.668 294.694,162.200 295.600 C 161.826 296.324,161.402 296.755,161.260 296.558 C 160.653 295.721,158.724 295.910,159.180 296.762 C 159.562 297.477,159.458 297.590,158.200 297.826 C 157.425 297.972,156.697 298.242,156.583 298.428 C 156.468 298.613,156.129 298.671,155.829 298.556 C 155.529 298.440,155.039 298.673,154.742 299.073 C 154.444 299.473,153.943 299.856,153.628 299.924 C 153.314 299.992,152.566 300.397,151.966 300.824 C 151.367 301.251,150.604 301.600,150.272 301.600 C 149.939 301.600,149.607 301.735,149.533 301.900 C 149.288 302.453,146.891 303.962,145.840 304.226 C 145.268 304.369,144.800 304.647,144.800 304.843 C 144.800 305.040,144.440 305.200,144.000 305.200 C 143.560 305.200,143.200 305.380,143.200 305.600 C 143.200 305.820,142.924 306.000,142.587 306.000 C 142.251 306.000,141.871 306.270,141.745 306.600 C 141.618 306.930,141.216 307.200,140.852 307.200 C 140.487 307.200,139.254 307.830,138.110 308.600 C 136.967 309.370,135.844 310.000,135.616 310.000 C 135.387 310.000,135.200 310.180,135.200 310.400 C 135.200 310.620,134.930 310.800,134.600 310.800 C 134.270 310.800,134.000 310.991,134.000 311.224 C 134.000 311.457,133.841 311.549,133.647 311.429 C 133.453 311.309,132.636 311.659,131.830 312.206 C 131.024 312.753,130.234 313.200,130.075 313.200 C 129.916 313.200,129.143 313.637,128.357 314.171 C 126.290 315.575,124.044 316.800,123.535 316.800 C 123.292 316.800,122.803 317.129,122.447 317.530 C 122.091 317.932,121.215 318.516,120.500 318.828 C 119.785 319.140,119.200 319.531,119.200 319.698 C 119.200 319.864,118.975 320.004,118.700 320.009 C 118.425 320.014,117.750 320.370,117.200 320.800 C 116.650 321.230,115.885 321.586,115.500 321.591 C 115.115 321.596,114.800 321.780,114.800 322.000 C 114.800 322.220,114.589 322.400,114.331 322.400 C 114.074 322.400,113.579 322.643,113.231 322.941 C 112.884 323.238,111.790 323.913,110.800 324.441 C 109.810 324.968,108.890 325.550,108.755 325.734 C 108.621 325.918,108.351 326.060,108.155 326.049 C 107.960 326.038,107.410 326.368,106.934 326.782 C 106.458 327.196,105.939 327.415,105.780 327.268 C 105.621 327.120,105.710 327.419,105.976 327.931 C 106.271 328.497,106.691 328.774,107.046 328.638 C 107.367 328.514,107.733 328.680,107.858 329.007 C 107.983 329.333,108.426 329.600,108.843 329.600 C 109.259 329.600,109.600 329.791,109.600 330.024 C 109.600 330.257,109.781 330.335,110.003 330.198 C 110.224 330.061,110.509 330.218,110.635 330.547 C 110.862 331.137,112.400 331.304,112.400 330.738 C 112.400 330.284,111.684 329.954,111.534 330.340 C 111.460 330.529,111.054 330.350,110.630 329.942 C 109.951 329.288,109.939 329.200,110.530 329.200 C 110.899 329.200,111.200 329.335,111.199 329.500 C 111.199 329.665,112.999 329.743,115.199 329.673 C 117.400 329.604,119.200 329.400,119.200 329.221 C 119.200 329.041,123.700 328.762,129.200 328.600 C 134.700 328.438,139.200 328.147,139.200 327.953 C 139.200 327.759,141.270 327.600,143.800 327.600 C 146.600 327.600,148.400 327.443,148.400 327.200 C 148.400 326.955,150.333 326.800,153.400 326.800 C 156.467 326.800,158.400 326.645,158.400 326.400 C 158.400 326.155,160.333 326.000,163.400 326.000 C 166.467 326.000,168.400 325.845,168.400 325.600 C 168.400 325.355,170.333 325.200,173.400 325.200 C 176.467 325.200,178.400 325.045,178.400 324.800 C 178.400 324.555,180.333 324.400,183.400 324.400 C 186.467 324.400,188.400 324.245,188.400 324.000 C 188.400 323.780,188.940 323.600,189.600 323.600 C 190.676 323.600,190.800 323.729,190.800 324.843 C 190.800 325.767,190.949 326.028,191.383 325.862 C 191.852 325.682,191.998 326.203,192.132 328.519 C 192.224 330.104,192.233 323.390,192.152 313.600 C 192.027 298.318,191.921 295.737,191.403 295.356 C 191.016 295.071,190.800 294.247,190.800 293.056 C 190.800 291.467,190.685 291.200,190.000 291.200 C 189.560 291.200,189.200 291.380,189.200 291.600 C 189.200 291.820,188.660 292.000,188.000 292.000 C 187.340 292.000,186.800 291.820,186.800 291.600 C 186.800 291.380,186.620 291.200,186.400 291.200 C 186.180 291.200,186.000 291.380,186.000 291.600 M118.000 297.200 C 118.000 297.440,116.400 297.600,114.000 297.600 C 111.600 297.600,110.000 297.760,110.000 298.000 C 110.000 298.574,108.911 298.494,108.633 297.900 C 108.447 297.500,108.353 297.500,108.167 297.900 C 108.003 298.251,106.749 298.400,103.967 298.400 C 101.589 298.400,100.000 298.560,100.000 298.800 C 100.000 299.374,98.911 299.294,98.633 298.700 C 98.447 298.300,98.353 298.300,98.167 298.700 C 98.027 298.999,97.156 299.200,96.003 299.200 L 94.072 299.200 93.755 302.700 C 93.497 305.547,93.389 305.939,93.172 304.800 C 93.018 303.992,92.883 305.630,92.853 308.676 C 92.824 311.578,92.955 314.048,93.144 314.165 C 93.552 314.418,95.592 313.532,95.597 313.100 C 95.599 312.935,95.855 312.800,96.167 312.800 C 96.478 312.800,96.793 312.665,96.867 312.500 C 97.105 311.964,99.551 310.400,100.150 310.400 C 100.471 310.400,100.793 310.258,100.867 310.086 C 100.940 309.913,101.618 309.337,102.372 308.807 C 103.127 308.277,103.591 308.091,103.404 308.394 C 103.216 308.697,103.745 308.425,104.579 307.789 C 105.412 307.153,106.385 306.590,106.740 306.538 C 107.095 306.486,107.449 306.253,107.527 306.019 C 107.605 305.786,107.810 305.683,107.983 305.790 C 108.156 305.897,108.845 305.462,109.513 304.823 C 110.181 304.184,110.833 303.767,110.962 303.895 C 111.090 304.023,111.542 303.728,111.967 303.238 C 112.392 302.748,112.848 302.370,112.981 302.397 C 113.406 302.485,117.635 300.301,117.432 300.099 C 117.059 299.726,118.426 298.724,119.005 298.947 C 119.327 299.070,119.571 299.043,119.548 298.886 C 119.433 298.112,119.652 297.863,119.984 298.388 C 120.189 298.712,120.501 298.822,120.678 298.634 C 120.855 298.445,120.785 298.213,120.522 298.119 C 120.260 298.025,120.155 297.645,120.289 297.274 C 120.434 296.874,120.179 297.006,119.661 297.600 C 119.181 298.150,118.812 298.420,118.842 298.200 C 118.955 297.346,118.783 296.800,118.400 296.800 C 118.180 296.800,118.000 296.980,118.000 297.200 M307.000 318.000 C 306.860 318.440,306.568 318.800,306.349 318.800 C 306.131 318.800,306.063 318.978,306.198 319.196 C 306.531 319.736,307.425 318.865,307.495 317.930 C 307.568 316.966,307.317 317.001,307.000 318.000 M112.483 331.216 C 112.058 331.897,112.099 332.000,112.797 332.000 C 113.238 332.000,113.600 332.159,113.600 332.353 C 113.600 332.548,113.970 332.804,114.423 332.922 C 115.071 333.091,115.153 333.025,114.806 332.607 C 114.482 332.216,114.502 332.024,114.883 331.870 C 115.274 331.714,115.261 331.655,114.831 331.632 C 114.519 331.614,113.973 331.337,113.618 331.016 C 113.047 330.500,112.916 330.523,112.483 331.216 " stroke="none" fill="#425c9c" fill-rule="evenodd"></path><path id="path5" d="M190.565 32.600 C 190.566 36.560,190.626 38.126,190.698 36.080 C 190.771 34.034,190.771 30.794,190.698 28.880 C 190.624 26.966,190.565 28.640,190.565 32.600 M190.263 73.900 C 190.120 76.705,189.981 83.500,189.954 89.000 C 189.927 94.500,189.768 98.460,189.600 97.800 C 189.432 97.140,189.273 96.915,189.247 97.300 C 189.210 97.856,188.830 98.000,187.400 98.000 C 186.410 98.000,185.600 98.180,185.600 98.400 C 185.600 98.645,183.667 98.800,180.600 98.800 C 177.533 98.800,175.600 98.955,175.600 99.200 C 175.600 99.445,173.667 99.600,170.600 99.600 C 167.533 99.600,165.600 99.755,165.600 100.000 C 165.600 100.245,163.678 100.400,160.633 100.400 C 157.035 100.400,155.611 100.538,155.464 100.900 C 155.311 101.276,155.156 101.252,154.837 100.800 C 154.459 100.267,154.411 100.267,154.400 100.800 C 154.389 101.333,154.346 101.333,154.008 100.800 C 153.677 100.275,153.541 100.288,152.929 100.900 C 152.262 101.567,152.271 101.600,153.114 101.600 C 153.601 101.600,154.000 101.741,154.000 101.912 C 154.000 102.084,154.495 102.451,155.100 102.728 C 157.128 103.656,158.000 104.188,158.000 104.495 C 158.000 104.663,158.338 104.800,158.751 104.800 C 159.164 104.800,159.749 105.098,160.051 105.462 C 160.353 105.826,161.140 106.369,161.800 106.668 C 162.460 106.967,163.353 107.434,163.785 107.706 C 166.353 109.322,167.655 110.000,168.192 110.000 C 168.526 110.000,168.800 110.180,168.800 110.400 C 168.800 110.620,169.070 110.800,169.400 110.800 C 169.730 110.800,170.000 110.946,170.000 111.125 C 170.000 111.304,170.630 111.698,171.400 112.000 C 172.170 112.302,172.800 112.696,172.800 112.875 C 172.800 113.054,173.070 113.200,173.400 113.200 C 173.730 113.200,174.000 113.380,174.000 113.600 C 174.000 113.820,174.320 114.000,174.712 114.000 C 175.103 114.000,175.683 114.360,176.000 114.800 C 176.317 115.240,176.801 115.600,177.076 115.600 C 177.604 115.600,179.288 116.488,181.966 118.179 C 182.856 118.740,183.843 119.200,184.159 119.200 C 184.475 119.200,184.793 119.335,184.867 119.500 C 185.034 119.876,187.164 121.175,188.100 121.471 C 188.485 121.593,188.800 121.852,188.800 122.047 C 188.800 122.241,189.250 122.400,189.800 122.400 L 190.800 122.400 190.800 112.376 C 190.800 105.796,190.663 102.438,190.400 102.600 C 190.180 102.736,190.000 102.577,190.000 102.247 C 190.000 101.917,190.173 101.540,190.384 101.410 C 190.739 101.191,191.022 68.800,190.669 68.800 C 190.589 68.800,190.406 71.095,190.263 73.900 M92.584 89.721 C 92.457 90.228,92.420 91.623,92.502 92.821 L 92.652 95.000 92.726 92.380 C 92.767 90.939,93.016 89.544,93.280 89.280 C 93.645 88.915,93.647 88.800,93.288 88.800 C 93.028 88.800,92.711 89.215,92.584 89.721 M140.000 93.971 C 140.550 94.417,141.210 94.786,141.467 94.791 C 141.723 94.796,142.002 95.007,142.087 95.260 C 142.171 95.513,142.467 95.644,142.745 95.552 C 143.022 95.459,142.293 94.883,141.125 94.272 C 139.612 93.480,139.288 93.393,140.000 93.971 M106.400 96.820 C 107.855 97.807,108.400 98.024,108.400 97.614 C 108.400 97.386,108.130 97.200,107.800 97.200 C 107.470 97.200,107.200 97.020,107.200 96.800 C 107.200 96.580,106.885 96.403,106.500 96.406 C 105.899 96.411,105.884 96.470,106.400 96.820 M147.200 98.137 C 147.200 98.243,148.055 98.737,149.100 99.237 C 150.145 99.736,151.112 100.310,151.248 100.512 C 151.384 100.714,151.834 100.798,152.248 100.700 C 152.858 100.555,152.754 100.411,151.693 99.934 C 150.975 99.611,150.510 99.224,150.660 99.073 C 150.810 98.923,150.768 98.786,150.567 98.769 C 149.936 98.717,148.933 98.496,148.049 98.216 C 147.582 98.067,147.200 98.032,147.200 98.137 M92.647 107.400 C 92.453 111.800,92.414 124.490,92.561 135.600 C 92.708 146.710,92.812 157.481,92.793 159.536 C 92.770 162.055,92.896 163.188,93.179 163.013 C 93.454 162.843,93.600 163.523,93.600 164.976 C 93.600 166.686,93.739 167.200,94.200 167.200 C 94.530 167.200,94.800 167.020,94.800 166.800 C 94.800 166.555,96.733 166.400,99.800 166.400 C 102.867 166.400,104.800 166.245,104.800 166.000 C 104.800 165.757,106.600 165.600,109.400 165.600 C 112.200 165.600,114.000 165.443,114.000 165.200 C 114.000 164.955,115.933 164.800,119.000 164.800 C 122.457 164.800,124.000 164.660,124.000 164.347 C 124.000 164.023,125.479 163.947,129.183 164.081 C 133.237 164.227,134.409 164.153,134.567 163.741 C 134.679 163.451,135.047 163.320,135.385 163.450 C 135.778 163.600,136.000 163.458,136.000 163.055 C 136.000 162.658,136.223 162.511,136.603 162.657 C 137.285 162.918,139.130 161.843,139.936 160.713 C 140.362 160.116,140.590 160.060,141.045 160.438 C 141.507 160.821,141.572 160.792,141.378 160.287 C 141.208 159.843,141.350 159.694,141.869 159.773 C 142.813 159.916,144.438 159.185,144.164 158.742 C 143.983 158.449,144.552 158.313,145.455 158.434 C 145.596 158.453,145.821 158.318,145.955 158.134 C 146.454 157.453,148.788 156.000,149.384 156.000 C 149.723 156.000,150.000 155.809,150.000 155.576 C 150.000 155.343,150.180 155.264,150.400 155.400 C 150.620 155.536,150.801 155.502,150.803 155.324 C 150.806 154.985,152.688 154.000,153.333 154.000 C 153.538 154.000,154.000 153.685,154.359 153.300 C 154.717 152.915,155.774 152.195,156.706 151.700 C 157.637 151.205,159.165 150.395,160.100 149.900 C 161.035 149.405,161.890 148.910,162.000 148.800 C 162.110 148.690,163.413 147.970,164.897 147.200 C 166.380 146.430,167.595 145.665,167.597 145.500 C 167.598 145.335,167.800 145.200,168.044 145.200 C 168.289 145.200,170.040 144.255,171.937 143.100 C 173.833 141.945,176.063 140.680,176.892 140.288 C 178.241 139.652,179.095 138.000,178.075 138.000 C 177.897 138.000,177.402 137.675,176.975 137.278 C 176.549 136.880,175.615 136.297,174.900 135.980 C 174.185 135.664,173.600 135.302,173.600 135.177 C 173.600 135.052,172.970 134.702,172.200 134.400 C 171.430 134.098,170.800 133.726,170.800 133.574 C 170.800 133.422,170.260 133.073,169.600 132.800 C 168.940 132.527,168.400 132.145,168.400 131.951 C 168.400 131.758,168.124 131.600,167.786 131.600 C 167.448 131.600,166.773 131.346,166.286 131.035 C 164.325 129.786,161.760 128.352,161.100 128.136 C 160.715 128.010,160.400 127.748,160.400 127.553 C 160.400 127.359,160.130 127.200,159.800 127.200 C 159.470 127.200,159.200 127.020,159.200 126.800 C 159.200 126.580,158.840 126.400,158.400 126.400 C 157.960 126.400,157.600 126.220,157.600 126.000 C 157.600 125.780,157.330 125.600,157.000 125.600 C 156.670 125.600,156.400 125.420,156.400 125.200 C 156.400 124.980,156.130 124.800,155.800 124.800 C 155.470 124.800,155.200 124.620,155.200 124.400 C 155.200 124.180,154.953 124.000,154.651 124.000 C 154.349 124.000,152.754 123.190,151.107 122.200 C 149.459 121.210,147.899 120.400,147.639 120.400 C 147.379 120.400,146.806 120.064,146.366 119.654 C 145.925 119.243,144.718 118.481,143.682 117.959 C 142.647 117.438,141.710 116.918,141.600 116.805 C 141.490 116.692,140.970 116.358,140.445 116.062 C 139.920 115.767,138.930 115.200,138.245 114.803 C 137.560 114.406,135.560 113.261,133.800 112.259 C 132.040 111.256,130.383 110.248,130.117 110.018 C 129.851 109.788,129.356 109.600,129.017 109.600 C 128.678 109.600,128.400 109.420,128.400 109.200 C 128.400 108.980,128.207 108.800,127.972 108.800 C 127.737 108.800,126.792 108.299,125.872 107.688 C 124.952 107.076,123.660 106.311,123.000 105.988 C 122.340 105.665,121.710 105.308,121.600 105.195 C 121.490 105.081,120.637 104.631,119.705 104.194 C 118.772 103.757,118.007 103.267,118.005 103.105 C 118.001 102.859,116.983 102.310,114.600 101.267 C 114.380 101.171,114.633 101.477,115.161 101.946 C 115.690 102.416,115.904 102.800,115.638 102.800 C 115.371 102.800,115.254 102.963,115.377 103.162 C 115.500 103.362,116.006 103.448,116.500 103.354 C 117.339 103.195,117.346 103.209,116.600 103.564 C 116.160 103.773,113.685 103.956,111.100 103.972 C 108.252 103.989,106.400 104.158,106.400 104.400 C 106.400 104.645,104.467 104.800,101.400 104.800 C 98.333 104.800,96.400 104.955,96.400 105.200 C 96.400 105.420,95.688 105.600,94.817 105.600 L 93.234 105.600 93.117 102.500 C 93.044 100.555,92.869 102.380,92.647 107.400 M208.149 154.278 C 208.290 155.311,208.600 156.276,208.837 156.423 C 209.103 156.587,208.991 156.794,208.545 156.966 C 207.931 157.201,207.911 157.299,208.411 157.615 C 209.240 158.139,213.200 158.101,213.200 157.569 C 213.200 157.322,213.787 157.189,214.579 157.257 C 215.337 157.323,216.102 157.218,216.279 157.024 C 216.458 156.827,216.379 156.799,216.100 156.959 C 215.825 157.118,215.600 157.080,215.600 156.876 C 215.600 156.671,215.195 156.526,214.700 156.552 C 214.122 156.583,213.659 156.278,213.405 155.700 C 213.188 155.205,212.783 154.800,212.505 154.800 C 212.227 154.800,212.000 154.620,212.000 154.400 C 212.000 154.180,211.680 154.000,211.289 154.000 C 210.898 154.000,210.270 153.640,209.893 153.200 C 208.604 151.694,207.858 152.156,208.149 154.278 " stroke="none" fill="#04779f" fill-rule="evenodd"></path><path id="path6" d="M305.457 267.000 C 304.727 267.730,303.750 267.778,303.433 267.100 C 303.247 266.700,303.153 266.700,302.967 267.100 C 302.804 267.448,301.589 267.600,298.967 267.600 C 296.722 267.600,295.200 267.762,295.200 268.000 C 295.200 268.577,293.710 268.493,293.433 267.900 C 293.247 267.500,293.153 267.500,292.967 267.900 C 292.807 268.242,291.669 268.400,289.367 268.400 C 287.389 268.400,286.000 268.565,286.000 268.800 C 286.000 269.020,285.640 269.200,285.200 269.200 C 284.760 269.200,284.400 269.020,284.400 268.800 C 284.400 268.580,284.040 268.400,283.600 268.400 C 283.160 268.400,282.800 268.580,282.800 268.800 C 282.800 269.035,281.400 269.200,279.400 269.200 C 277.400 269.200,276.000 269.365,276.000 269.600 C 276.000 270.177,274.510 270.093,274.233 269.500 C 274.047 269.100,273.953 269.100,273.767 269.500 C 273.604 269.848,272.389 270.000,269.767 270.000 C 267.522 270.000,266.000 270.162,266.000 270.400 C 266.000 270.977,264.510 270.893,264.233 270.300 C 264.047 269.900,263.953 269.900,263.767 270.300 C 263.604 270.648,262.389 270.800,259.767 270.800 C 257.522 270.800,256.000 270.962,256.000 271.200 C 256.000 271.779,254.504 271.693,254.264 271.100 C 254.113 270.729,253.976 270.718,253.730 271.060 C 253.510 271.367,250.528 271.616,244.800 271.804 C 240.070 271.960,236.140 272.248,236.067 272.444 C 235.866 272.979,234.500 272.872,234.233 272.300 C 234.047 271.900,233.953 271.900,233.767 272.300 C 233.607 272.642,232.469 272.800,230.167 272.800 C 228.189 272.800,226.800 272.965,226.800 273.200 C 226.800 273.420,226.440 273.600,226.000 273.600 C 225.560 273.600,225.200 273.420,225.200 273.200 C 225.200 272.980,224.930 272.800,224.600 272.800 C 224.270 272.800,224.000 272.980,224.000 273.200 C 224.000 273.437,222.533 273.600,220.400 273.600 C 218.267 273.600,216.800 273.763,216.800 274.000 C 216.800 274.220,216.530 274.400,216.200 274.400 C 215.870 274.400,215.600 274.220,215.600 274.000 C 215.600 273.780,215.330 273.600,215.000 273.600 C 214.670 273.600,214.400 273.780,214.400 274.000 C 214.400 274.220,213.455 274.403,212.300 274.406 C 208.845 274.416,209.018 273.884,208.859 284.985 C 208.759 291.956,208.846 294.800,209.159 294.800 C 209.402 294.800,209.602 294.125,209.605 293.300 C 209.617 290.135,209.757 290.000,213.013 290.000 C 214.958 290.000,216.011 289.833,216.167 289.500 C 216.353 289.100,216.447 289.100,216.633 289.500 C 216.910 290.093,218.400 290.177,218.400 289.600 C 218.400 289.362,219.922 289.200,222.167 289.200 C 224.789 289.200,226.004 289.048,226.167 288.700 C 226.353 288.300,226.447 288.300,226.633 288.700 C 226.910 289.293,228.400 289.377,228.400 288.800 C 228.400 288.562,229.922 288.400,232.167 288.400 C 234.789 288.400,236.004 288.248,236.167 287.900 C 236.353 287.500,236.447 287.500,236.633 287.900 C 236.910 288.493,238.400 288.577,238.400 288.000 C 238.400 287.765,239.789 287.600,241.767 287.600 C 244.069 287.600,245.207 287.442,245.367 287.100 C 245.553 286.700,245.647 286.700,245.833 287.100 C 246.109 287.692,248.400 287.781,248.400 287.200 C 248.400 286.965,249.789 286.800,251.767 286.800 C 254.069 286.800,255.207 286.642,255.367 286.300 C 255.553 285.900,255.647 285.900,255.833 286.300 C 256.110 286.893,257.600 286.977,257.600 286.400 C 257.600 286.162,259.122 286.000,261.367 286.000 C 263.989 286.000,265.204 285.848,265.367 285.500 C 265.553 285.100,265.647 285.100,265.833 285.500 C 266.110 286.093,267.600 286.177,267.600 285.600 C 267.600 285.362,269.122 285.200,271.367 285.200 C 273.989 285.200,275.204 285.048,275.367 284.700 C 275.553 284.300,275.647 284.300,275.833 284.700 C 276.110 285.293,277.600 285.377,277.600 284.800 C 277.600 284.562,279.122 284.400,281.367 284.400 C 283.989 284.400,285.204 284.248,285.367 283.900 C 285.553 283.500,285.647 283.500,285.833 283.900 C 286.110 284.493,287.600 284.577,287.600 284.000 C 287.600 283.762,289.122 283.600,291.367 283.600 C 293.989 283.600,295.204 283.448,295.367 283.100 C 295.553 282.700,295.647 282.700,295.833 283.100 C 296.110 283.693,297.600 283.777,297.600 283.200 C 297.600 282.965,298.989 282.800,300.967 282.800 C 303.285 282.800,304.396 282.644,304.536 282.300 C 304.677 281.953,304.840 281.931,305.070 282.229 C 306.723 284.377,307.191 282.407,307.197 273.271 C 307.200 267.112,306.797 265.660,305.457 267.000 M189.375 279.101 C 188.949 279.486,187.700 280.248,186.600 280.795 C 185.500 281.342,184.510 281.887,184.400 282.006 C 184.290 282.125,183.435 282.559,182.500 282.972 C 181.565 283.384,180.800 283.874,180.800 284.061 C 180.800 284.247,180.652 284.400,180.470 284.400 C 180.127 284.400,172.750 288.409,172.400 288.786 C 172.290 288.904,171.660 289.271,171.000 289.600 C 170.340 289.929,169.710 290.289,169.600 290.399 C 169.490 290.510,168.860 290.910,168.200 291.290 C 167.540 291.669,167.052 292.186,167.116 292.439 C 167.180 292.692,166.979 292.801,166.669 292.682 C 166.358 292.563,165.537 292.811,164.843 293.233 C 164.149 293.655,163.397 294.000,163.173 294.000 C 162.949 294.000,162.549 294.180,162.283 294.400 C 160.065 296.237,159.859 296.448,160.474 296.256 C 160.845 296.140,161.221 296.260,161.310 296.522 C 161.398 296.785,161.788 296.389,162.176 295.642 C 162.660 294.710,162.978 294.440,163.190 294.783 C 163.435 295.180,163.693 295.175,164.449 294.757 C 164.972 294.469,165.625 294.278,165.900 294.334 C 166.175 294.389,166.400 294.247,166.400 294.018 C 166.400 293.788,167.030 293.600,167.800 293.600 C 168.570 293.600,169.200 293.420,169.200 293.200 C 169.200 292.962,170.722 292.800,172.967 292.800 C 175.589 292.800,176.804 292.648,176.967 292.300 C 177.153 291.900,177.247 291.900,177.433 292.300 C 177.710 292.893,179.200 292.977,179.200 292.400 C 179.200 292.165,180.589 292.000,182.567 292.000 C 184.869 292.000,186.007 291.842,186.167 291.500 C 186.353 291.100,186.447 291.100,186.633 291.500 C 186.909 292.092,189.200 292.181,189.200 291.600 C 189.200 291.380,189.560 291.200,190.000 291.200 C 190.691 291.200,190.800 291.467,190.800 293.157 C 190.800 294.512,190.981 295.184,191.389 295.341 C 191.861 295.521,192.006 296.709,192.118 301.283 C 192.195 304.427,192.179 300.880,192.083 293.400 C 191.885 278.062,191.934 279.098,191.400 278.706 C 190.765 278.239,190.209 278.348,189.375 279.101 M145.600 279.600 C 145.600 279.839,144.067 280.000,141.800 280.000 C 139.533 280.000,138.000 280.161,138.000 280.400 C 138.000 280.979,136.504 280.893,136.264 280.300 C 136.113 279.929,135.976 279.918,135.730 280.260 C 135.510 280.567,132.528 280.816,126.800 281.004 C 122.070 281.160,118.140 281.448,118.067 281.644 C 117.866 282.179,116.500 282.072,116.233 281.500 C 116.047 281.100,115.953 281.100,115.767 281.500 C 115.607 281.842,114.469 282.000,112.167 282.000 C 110.189 282.000,108.800 282.165,108.800 282.400 C 108.800 282.620,108.440 282.800,108.000 282.800 C 107.560 282.800,107.200 282.620,107.200 282.400 C 107.200 282.180,106.840 282.000,106.400 282.000 C 105.960 282.000,105.600 282.180,105.600 282.400 C 105.600 282.635,104.200 282.800,102.200 282.800 C 100.200 282.800,98.800 282.965,98.800 283.200 C 98.800 283.779,97.304 283.693,97.064 283.100 C 96.907 282.713,96.773 282.725,96.475 283.152 C 96.235 283.495,95.628 283.636,94.873 283.525 C 93.112 283.267,92.795 285.021,92.823 294.877 C 92.851 304.632,93.276 308.178,93.762 302.700 L 94.072 299.200 96.003 299.200 C 97.156 299.200,98.027 298.999,98.167 298.700 C 98.353 298.300,98.447 298.300,98.633 298.700 C 98.911 299.294,100.000 299.374,100.000 298.800 C 100.000 298.560,101.589 298.400,103.967 298.400 C 106.749 298.400,108.003 298.251,108.167 297.900 C 108.353 297.500,108.447 297.500,108.633 297.900 C 108.911 298.494,110.000 298.574,110.000 298.000 C 110.000 297.760,111.589 297.600,113.967 297.600 C 116.778 297.600,117.985 297.454,118.112 297.100 C 118.345 296.447,118.782 296.868,118.990 297.946 C 119.080 298.416,118.972 298.800,118.748 298.800 C 118.525 298.800,118.073 299.070,117.743 299.400 C 116.819 300.324,118.054 300.194,119.139 299.253 C 120.069 298.446,120.316 297.763,119.500 298.253 C 119.187 298.441,119.220 298.263,119.587 297.777 C 120.480 296.595,120.547 296.546,120.289 297.267 C 120.146 297.667,120.295 298.028,120.661 298.168 C 121.411 298.456,122.098 298.083,121.777 297.562 C 121.647 297.352,121.689 297.206,121.870 297.237 C 122.648 297.373,123.231 297.173,123.026 296.842 C 122.904 296.645,123.083 296.377,123.423 296.246 C 123.782 296.109,123.938 296.177,123.794 296.410 C 123.657 296.631,124.503 296.243,125.673 295.550 C 126.843 294.856,128.430 293.932,129.200 293.497 C 129.970 293.062,131.078 292.367,131.662 291.953 C 132.246 291.539,132.921 291.200,133.162 291.200 C 133.403 291.200,133.600 291.064,133.600 290.898 C 133.600 290.731,134.185 290.344,134.900 290.037 C 135.615 289.730,136.974 288.966,137.920 288.340 C 138.866 287.713,139.740 287.200,139.862 287.200 C 139.984 287.200,140.888 286.657,141.871 285.994 C 142.853 285.331,143.829 284.894,144.039 285.024 C 144.248 285.153,144.370 285.040,144.310 284.772 C 144.249 284.504,144.791 284.124,145.514 283.927 C 146.237 283.731,146.721 283.397,146.591 283.185 C 146.379 282.843,147.236 282.607,148.130 282.763 C 148.311 282.794,148.353 282.648,148.224 282.438 C 148.094 282.228,148.620 281.827,149.394 281.548 C 150.315 281.215,150.800 280.783,150.800 280.296 C 150.800 279.836,150.976 279.662,151.262 279.838 C 151.548 280.015,151.615 279.948,151.438 279.662 C 151.089 279.097,147.600 279.041,147.600 279.600 C 147.600 279.820,147.330 280.000,147.000 280.000 C 146.670 280.000,146.400 279.820,146.400 279.600 C 146.400 279.380,146.220 279.200,146.000 279.200 C 145.780 279.200,145.600 279.380,145.600 279.600 M307.346 289.000 C 307.347 291.200,307.414 292.049,307.495 290.887 C 307.576 289.724,307.576 287.924,307.493 286.887 C 307.411 285.849,307.345 286.800,307.346 289.000 M158.806 296.700 C 158.803 296.975,158.665 297.181,158.500 297.157 C 157.806 297.057,156.439 297.722,156.232 298.260 C 156.081 298.654,156.169 298.738,156.505 298.521 C 156.777 298.344,157.581 298.020,158.292 297.800 C 159.307 297.485,159.501 297.272,159.198 296.800 C 158.941 296.400,158.810 296.367,158.806 296.700 M147.200 303.200 C 147.200 303.420,146.941 303.600,146.624 303.600 C 146.307 303.600,145.946 303.763,145.823 303.963 C 145.472 304.530,147.119 303.980,147.636 303.357 C 147.971 302.953,147.975 302.800,147.649 302.800 C 147.402 302.800,147.200 302.980,147.200 303.200 " stroke="none" fill="#345c94" fill-rule="evenodd"></path><path id="path7" d="" stroke="none" fill="#6480a0" fill-rule="evenodd"></path><path id="path8" d="" stroke="none" fill="#4080a0" fill-rule="evenodd"></path></g></svg>