<svg xmlns="http://www.w3.org/2000/svg" xmlns:xlink="http://www.w3.org/1999/xlink" width="239.21208" height="244.76492" viewBox="0 0 239.21208 244.76492">
  <defs>
    <linearGradient id="a" x1="142.77894" y1="30.78991" x2="157.75414" y2="222.9716" gradientUnits="userSpaceOnUse">
      <stop offset="0" stop-color="#009db6"/>
      <stop offset="0.49" stop-color="#00558a"/>
      <stop offset="1" stop-color="#835fac"/>
    </linearGradient>
    <linearGradient id="b" x1="86.15438" y1="35.20221" x2="101.12958" y2="227.38391" xlink:href="#a"/>
    <linearGradient id="c" x1="143.62602" y1="30.7239" x2="158.60122" y2="222.9056" xlink:href="#a"/>
    <linearGradient id="d" x1="95.59264" y1="34.46676" x2="110.56783" y2="226.64846" xlink:href="#a"/>
    <linearGradient id="e" x1="79.8295" y1="35.69506" x2="94.8047" y2="227.87675" xlink:href="#a"/>
    <linearGradient id="f" x1="84.96241" y1="35.29509" x2="99.93761" y2="227.47679" xlink:href="#a"/>
  </defs>
  <title>bcoin-logo-only</title>
  <g>
    <polygon points="128.545 148.57 128.462 96.789 173.345 122.606 128.545 148.57" style="fill: url(#a)"/>
    <polygon points="119.529 163.078 119.618 214.859 74.731 189.041 119.529 163.078" style="fill: url(#b)"/>
    <polygon points="128.957 213.59 180.367 184.212 180.367 131.113 128.957 160.491 128.957 213.59" style="fill: url(#c)"/>
    <polygon points="118.562 28.803 118.647 80.583 73.764 54.766 118.562 28.803" style="fill: url(#d)"/>
    <polygon points="67.795 181.706 67.713 129.925 112.596 155.742 67.795 181.706" style="fill: url(#e)"/>
    <polygon points="67.795 115.434 67.713 63.653 112.596 89.47 67.795 115.434" style="fill: url(#f)"/>
    <polygon points="119.529 96.806 119.618 148.586 74.731 122.769 119.529 96.806" style="fill: none"/>
  </g>
</svg>
