<?xml version="1.0" encoding="utf-8"?>
<!-- Generator: Adobe Illustrator 19.0.0, SVG Export Plug-In . SVG Version: 6.00 Build 0)  -->
<svg version="1.1" id="Layer_1" xmlns="http://www.w3.org/2000/svg" xmlns:xlink="http://www.w3.org/1999/xlink" x="0px" y="0px"
	 viewBox="0 0 18 18" style="enable-background:new 0 0 18 18;" xml:space="preserve">
<g id="XMLID_7_">
	<path id="XMLID_8_" style="fill:#999999;" d="M17.9,9.2c0,3.9-2.5,7.3-6.1,8.4c-0.5,0.1-0.6-0.2-0.6-0.4c0-0.3,0-1.3,0-2.4
		c0-0.8-0.3-1.4-0.6-1.6c2-0.2,4.1-1,4.1-4.4c0-1-0.3-1.8-0.9-2.4c0.1-0.2,0.4-1.1-0.1-2.4c-0.7-0.2-2.4,0.9-2.4,0.9
		C10.5,4.7,9.8,4.6,9,4.6S7.5,4.7,6.8,4.9c0,0-1.7-1.1-2.4-0.9C3.8,5.2,4.1,6.1,4.2,6.4C3.7,7,3.3,7.8,3.3,8.8
		c0,3.4,2.1,4.2,4.1,4.4c-0.3,0.2-0.5,0.6-0.6,1.2C6.3,14.6,5,15,4.2,13.6c-0.5-0.8-1.4-0.9-1.4-0.9c-0.9,0-0.1,0.5-0.1,0.5
		c0.6,0.3,1,1.3,1,1.3c0.5,1.6,3,1.1,3,1.1c0,0.7,0,1.4,0,1.7c0,0.2-0.2,0.5-0.6,0.4c-3.5-1.2-6.1-4.5-6.1-8.4c0-4.9,4-8.9,8.9-8.9
		S17.9,4.3,17.9,9.2z M3.4,13c-0.1,0-0.1,0-0.2,0c0,0,0,0.1,0.1,0.1c0.1,0,0.1,0,0.2,0C3.5,13.1,3.5,13,3.4,13z M3.8,13.3
		c-0.1-0.1-0.1-0.1-0.2,0c0,0,0,0.1,0,0.2c0.1,0.1,0.1,0.1,0.2,0C3.9,13.5,3.9,13.4,3.8,13.3z M4.2,13.8c0-0.1-0.1-0.1-0.2-0.1
		c-0.1,0-0.1,0.1,0,0.2C4,14,4.1,14.1,4.2,14C4.2,14,4.2,13.9,4.2,13.8z M4.6,14.3c-0.1-0.1-0.2-0.1-0.2,0c-0.1,0,0,0.1,0,0.2
		c0.1,0.1,0.2,0.1,0.2,0C4.7,14.5,4.7,14.4,4.6,14.3z M5.2,14.6c-0.1,0-0.2,0-0.2,0.1c0,0.1,0,0.2,0.2,0.2c0.1,0,0.2,0,0.2-0.1
		C5.4,14.7,5.3,14.6,5.2,14.6z M5.9,14.7c-0.1,0-0.2,0.1-0.2,0.1c0,0.1,0.1,0.1,0.2,0.1c0.1,0,0.2-0.1,0.2-0.1
		C6.1,14.8,6,14.7,5.9,14.7z M6.5,14.6c-0.1,0-0.2,0.1-0.2,0.2c0,0.1,0.1,0.1,0.2,0.1c0.1,0,0.2-0.1,0.2-0.2
		C6.7,14.7,6.6,14.6,6.5,14.6z"/>
</g>
</svg>
