<?xml version="1.0" encoding="utf-8"?>
<!-- Generator: Adobe Illustrator 19.0.0, SVG Export Plug-In . SVG Version: 6.00 Build 0)  -->
<svg version="1.1" id="Layer_1" xmlns="http://www.w3.org/2000/svg" xmlns:xlink="http://www.w3.org/1999/xlink" x="0px" y="0px"
	 viewBox="0 0 18 18" style="enable-background:new 0 0 18 18;" xml:space="preserve">
<g id="XMLID_2_">
	<g id="XMLID_3_">
		<path id="XMLID_4_" style="fill:#999999;" d="M2.6,2.6c-3.5,3.5-3.5,9.2,0,12.7s9.2,3.5,12.7,0s3.5-9.2,0-12.7S6.1-0.9,2.6,2.6z
			 M14.2,14.2c-2.9,2.9-7.6,2.9-10.5,0l1.9-1.9c1.9,1.9,4.9,1.9,6.7,0c1.9-1.9,1.9-4.9,0-6.7L11,7l-5.4,5.4c-1.9-1.9-1.9-4.9,0-6.7
			c1.9-1.9,4.9-1.9,6.7,0l1.9-1.9C17.1,6.6,17.1,11.3,14.2,14.2z"/>
	</g>
</g>
</svg>
