<?xml version="1.0" encoding="utf-8"?>
<!-- Generator: Adobe Illustrator 19.0.0, SVG Export Plug-In . SVG Version: 6.00 Build 0)  -->
<svg version="1.1" id="Layer_1" xmlns="http://www.w3.org/2000/svg" xmlns:xlink="http://www.w3.org/1999/xlink" x="0px" y="0px"
	 viewBox="-470 272 18 18" style="enable-background:new -470 272 18 18;" xml:space="preserve">
<style type="text/css">
	.st0{fill:#B7B7B7;}
	.st1{fill:#8D8D8D;}
	.st2{fill:#8C8C8C;}
	.st3{fill:#4C4C4C;}
	.st4{fill:#656565;}
	.st5{fill:#707070;}
</style>
<g>
	<path class="st0" d="M-465.7,281.1c0,0-0.1,0-0.1,0.1c-0.4,0.1-0.9,0.3-1.3,0.4c-0.5,0.2-1.1,0-1.5-0.4c-0.2-0.2-0.3-0.5-0.4-0.8
		c0,0,0,0,0-0.1c0-0.1,0-0.2,0-0.2c0,0,0-0.1,0-0.1c0.1-0.6,0.4-1,1-1.2c0.5-0.2,0.9-0.3,1.4-0.5c0,0,0,0.1,0,0.1
		c0.3,0.8,0.5,1.7,0.8,2.5C-465.7,281-465.7,281-465.7,281.1z"/>
	<path class="st1" d="M-461.1,285.9c0.1,0.4,0.2,0.7,0.4,1.1c0,0.1,0.1,0.2,0.1,0.3c0.2,0.7-0.1,1.4-0.6,1.7
		c-0.2,0.1-0.3,0.2-0.5,0.2c0,0,0,0-0.1,0c-0.1,0-0.2,0-0.3,0c-0.1,0-0.1,0-0.2,0c-0.5-0.1-0.9-0.4-1-0.9c-0.2-0.5-0.3-1-0.5-1.4
		c0,0,0.1,0,0.1,0c0.5-0.2,1-0.3,1.5-0.5C-461.9,286.2-461.6,286-461.1,285.9C-461.2,285.9-461.1,285.9-461.1,285.9z"/>
	<path class="st0" d="M-453,282.3c0,0,0,0.1,0,0.1c0,0.3-0.2,0.5-0.4,0.7c-0.2,0.2-0.4,0.3-0.6,0.4c-0.4,0.1-0.9,0.3-1.3,0.4
		c0,0-0.1,0-0.1,0.1c0,0,0,0,0,0c0,0,0-0.1,0-0.1c-0.1-0.4-0.3-0.8-0.4-1.3c-0.1-0.3-0.2-0.6-0.3-0.9c0-0.1-0.1-0.3-0.1-0.4
		c0,0,0-0.1,0-0.1c0.3-0.1,0.7-0.2,1-0.3c0.1,0,0.3-0.1,0.4-0.1c0.6-0.2,1.1,0,1.5,0.4c0.2,0.2,0.3,0.5,0.4,0.7c0,0,0,0.1,0,0.1
		C-453,282.2-453,282.3-453,282.3z"/>
	<path class="st0" d="M-463.9,277.5c1-0.3,2-0.6,3-1c0,0,0,0.1,0,0.1c0.2,0.6,0.4,1.1,0.5,1.7c0.1,0.3,0.2,0.6,0.3,0.9
		c0,0,0,0.1,0,0.1c-1,0.3-2,0.6-3,1c0,0,0-0.1,0-0.1c-0.2-0.6-0.4-1.1-0.5-1.7C-463.7,278.1-463.8,277.8-463.9,277.5
		C-463.9,277.5-463.9,277.5-463.9,277.5z"/>
	<path class="st2" d="M-457.3,278.3c0.3,1,0.6,2,1,3c0,0-0.1,0-0.1,0c-0.7,0.2-1.3,0.4-2,0.7c-0.2,0.1-0.4,0.1-0.6,0.2c0,0,0,0,0,0
		c-0.1-0.3-0.2-0.6-0.3-0.9c-0.2-0.7-0.5-1.4-0.7-2.1c0,0,0.1,0,0.1,0c0.5-0.2,1-0.3,1.5-0.5C-458,278.6-457.7,278.5-457.3,278.3
		C-457.3,278.3-457.3,278.3-457.3,278.3z"/>
	<path class="st3" d="M-459,282.2c0.2-0.1,0.4-0.1,0.6-0.2c0.7-0.2,1.3-0.4,2-0.7c0,0,0.1,0,0.1,0c0,0,0,0,0,0c0,0,0,0.1,0,0.1
		c0,0.1,0.1,0.3,0.1,0.4c0.1,0.3,0.2,0.6,0.3,0.9c0.1,0.4,0.3,0.8,0.4,1.3c0,0,0,0.1,0,0.1c-0.2,0.1-0.3,0.1-0.5,0.2
		c-0.7,0.2-1.4,0.5-2.1,0.7c0,0-0.1,0-0.1,0c0,0,0,0,0,0c0,0,0-0.1,0-0.1c-0.1-0.4-0.3-0.9-0.4-1.3c-0.1-0.3-0.2-0.6-0.3-0.9
		C-458.9,282.5-458.9,282.4-459,282.2C-459,282.3-459,282.2-459,282.2z"/>
	<path class="st4" d="M-457.3,278.3C-457.3,278.3-457.3,278.3-457.3,278.3c-0.4,0.1-0.8,0.2-1.1,0.3c-0.5,0.2-1,0.3-1.5,0.5
		c0,0-0.1,0-0.1,0c0,0,0,0,0,0c0,0,0-0.1,0-0.1c-0.1-0.3-0.2-0.6-0.3-0.9c-0.2-0.6-0.4-1.1-0.5-1.7c0,0,0-0.1,0-0.1c0,0,0,0,0,0
		c0,0,0.1,0,0.1,0c0.2-0.1,0.4-0.1,0.7-0.2c0.6-0.2,1.3-0.4,1.9-0.6c0,0,0,0,0.1,0c0,0,0,0,0,0c0,0,0,0.1,0,0.1
		C-457.8,276.5-457.6,277.4-457.3,278.3C-457.3,278.3-457.3,278.3-457.3,278.3C-457.2,278.3-457.3,278.3-457.3,278.3z"/>
	<path class="st5" d="M-463.9,277.5C-463.9,277.5-463.9,277.5-463.9,277.5c0.1,0.4,0.2,0.7,0.3,0.9c0.2,0.6,0.4,1.1,0.5,1.7
		c0,0,0,0.1,0,0.1c0,0,0,0,0,0c0,0,0,0-0.1,0c0,0-0.1,0-0.1,0c-0.3,0.1-0.6,0.2-0.9,0.3c-0.2,0.1-0.3,0.1-0.5,0.2
		c-0.4,0.1-0.8,0.3-1.2,0.4l0,0c0,0,0-0.1,0-0.1c-0.3-0.8-0.5-1.7-0.8-2.5c0,0,0-0.1,0-0.1c0,0,0,0,0,0c0,0,0,0,0.1,0
		c0,0,0.1,0,0.1,0c0.5-0.2,1.1-0.4,1.6-0.5c0.3-0.1,0.5-0.2,0.8-0.3C-463.9,277.5-463.9,277.5-463.9,277.5
		C-463.9,277.4-463.9,277.4-463.9,277.5z"/>
	<path class="st1" d="M-463.9,277.4C-463.9,277.5-463.9,277.5-463.9,277.4c-0.3,0.1-0.6,0.2-0.9,0.3c-0.5,0.2-1.1,0.4-1.6,0.5
		c0,0-0.1,0-0.1,0c0,0-0.1,0-0.1,0c-0.1-0.4-0.3-0.9-0.4-1.3c0-0.1-0.1-0.3-0.1-0.4c0-0.4,0.1-0.8,0.4-1.1c0.3-0.4,0.7-0.5,1.2-0.5
		c0.5,0.1,0.9,0.4,1.2,0.9c0.1,0.2,0.1,0.4,0.2,0.6C-464.1,276.8-464,277.1-463.9,277.4z"/>
	<path class="st2" d="M-458.1,275.6C-458.2,275.6-458.2,275.6-458.1,275.6c-0.7,0.2-1.3,0.4-2,0.7c-0.2,0.1-0.4,0.1-0.7,0.2
		c0,0-0.1,0-0.1,0c-0.2-0.5-0.3-1-0.5-1.5c0-0.1-0.1-0.2-0.1-0.4c0-0.6,0.4-1.2,1-1.4c0.7-0.3,1.5,0.1,1.8,0.8
		c0.1,0.2,0.1,0.4,0.2,0.7C-458.3,275-458.2,275.3-458.1,275.6z"/>
	<path class="st0" d="M-457.2,278.3C-457.3,278.3-457.3,278.3-457.2,278.3c-0.3-0.9-0.6-1.8-0.9-2.6c0,0,0-0.1,0-0.1
		c0.5-0.1,0.9-0.3,1.4-0.4c0.3-0.1,0.6-0.1,0.9,0c0.4,0.1,0.7,0.4,0.9,0.8c0.3,0.7-0.1,1.6-0.9,1.9
		C-456.3,278-456.8,278.2-457.2,278.3z"/>
	<path class="st1" d="M-465.7,281.1c0.4-0.1,0.8-0.3,1.2-0.4c0.2-0.1,0.3-0.1,0.5-0.2c0.3-0.1,0.6-0.2,0.9-0.3c0,0,0.1,0,0.1,0
		c0,0,0,0,0.1,0c0,0,0,0.1,0,0.1c0.3,1,0.6,1.9,0.9,2.9c0,0-0.1,0-0.1,0c-0.6,0.2-1.2,0.4-1.9,0.6c-0.2,0.1-0.5,0.2-0.7,0.2
		c0,0-0.1,0-0.1,0c-0.1-0.3-0.2-0.5-0.3-0.8C-465.2,282.5-465.5,281.8-465.7,281.1C-465.7,281.1-465.7,281.1-465.7,281.1z"/>
	<path class="st3" d="M-464.7,284C-464.7,284.1-464.7,284.1-464.7,284c0.3-0.1,0.5-0.2,0.8-0.2c0.6-0.2,1.2-0.4,1.9-0.6
		c0,0,0.1,0,0.1,0c0,0,0,0,0,0c0,0,0,0.1,0,0.1c0,0.1,0.1,0.2,0.1,0.4c0.2,0.7,0.5,1.4,0.7,2.2c0,0,0,0.1,0,0.1c0,0,0,0,0,0
		c0,0-0.1,0-0.1,0c-0.4,0.1-0.7,0.2-1.1,0.3c-0.5,0.2-1,0.3-1.5,0.5c0,0-0.1,0-0.1,0c0,0,0,0,0,0c0,0,0-0.1,0-0.1
		c-0.1-0.2-0.1-0.4-0.2-0.6c-0.2-0.7-0.4-1.3-0.6-2C-464.7,284.1-464.7,284.1-464.7,284C-464.7,284.1-464.7,284.1-464.7,284z"/>
	<path class="st0" d="M-464.7,284.1C-464.7,284.1-464.7,284.1-464.7,284.1c0.3,0.7,0.5,1.4,0.7,2.1c0.1,0.2,0.1,0.4,0.2,0.6
		c0,0,0,0.1,0,0.1c-0.3,0.1-0.5,0.2-0.8,0.3c-0.2,0.1-0.4,0.1-0.6,0.2c-0.7,0.2-1.5-0.1-1.7-0.8c-0.3-0.8,0.1-1.7,0.9-1.9
		C-465.7,284.4-465.2,284.2-464.7,284.1z"/>
	<path class="st0" d="M-461.1,285.9C-461.1,285.9-461.1,285.8-461.1,285.9c-0.3-0.8-0.5-1.5-0.7-2.3c0-0.1-0.1-0.2-0.1-0.4
		c0,0,0-0.1,0-0.1c0.7-0.2,1.4-0.5,2.2-0.7c0.2-0.1,0.5-0.2,0.7-0.2c0,0,0.1,0,0.1-0.1c0,0,0,0,0,0c0,0,0,0.1,0,0.1
		c0,0.1,0.1,0.3,0.1,0.4c0.1,0.3,0.2,0.6,0.3,0.9c0.1,0.4,0.3,0.9,0.4,1.3c0,0,0,0.1,0,0.1c-0.2,0.1-0.3,0.1-0.5,0.2
		C-459.5,285.4-460.3,285.6-461.1,285.9z"/>
	<path class="st2" d="M-458.1,284.9C-458.1,284.9-458.1,284.9-458.1,284.9c0.8-0.3,1.5-0.5,2.2-0.7c0.2-0.1,0.3-0.1,0.5-0.2
		c0,0,0,0,0,0c0.2,0.5,0.3,0.9,0.5,1.4c0.3,0.8-0.3,1.7-1.1,1.9c-0.7,0.1-1.4-0.3-1.6-0.9C-457.8,285.9-458,285.4-458.1,284.9z"/>
</g>
</svg>
