<?xml version="1.0" encoding="utf-8"?>
<!-- Generator: Adobe Illustrator 21.1.0, SVG Export Plug-In . SVG Version: 6.00 Build 0)  -->
<svg version="1.1" id="Layer_1" xmlns="http://www.w3.org/2000/svg" xmlns:xlink="http://www.w3.org/1999/xlink" x="0px" y="0px"
	 viewBox="0 0 18 18" style="enable-background:new 0 0 18 18;" xml:space="preserve">
<style type="text/css">
	.st0{fill:#D2D2D2;}
	.st1{fill:#5A5A5A;}
	.st2{fill:#AEAEAE;}
	.st3{fill:#8B8B8B;}
	.st4{fill:#727272;}
	.st5{fill:#9D9D9D;}
	.st6{fill:#777777;}
</style>
<g>
	<path class="st0" d="M9,3.8c-2,0-4,0-6.1,0c-0.1,0-0.3,0-0.4,0c-0.1,0-0.2-0.2-0.2-0.2c0-0.5,0-1,0.2-1.4c0.3-0.7,1-1.2,1.7-1.2
		c3.1,0,6.2,0,9.3,0c0.9,0,1.8,0.8,2,1.6c0.1,0.3,0.1,0.6,0.1,1c0,0.2-0.1,0.3-0.3,0.3C13.2,3.8,11.1,3.8,9,3.8C9,3.8,9,3.8,9,3.8z"
		/>
	<path class="st1" d="M15.5,12.8c-0.1,0.7-0.9,1.5-1.6,1.6c-0.1,0-0.1,0-0.2,0c-0.6-0.1-1,0.2-1.3,0.6c-0.6,0.7-1.3,1.3-1.9,2
		c-0.1,0.1-0.2,0.1-0.3,0.1c0-0.1-0.1-0.2-0.1-0.3c0-0.7,0-1.3,0-2c0-0.4,0-0.4-0.4-0.4c-1.3,0-2.7,0-4,0c-0.2,0-0.3,0-0.5,0
		c0.2,0,0.3,0,0.5,0c1.3,0,2.6,0,3.9,0c0.1,0,0.2,0,0.4,0c0,0,0.1,0,0.1-0.1c0,0-0.1,0-0.1,0c-1.6,0-3.1,0-4.7,0
		c0.1-0.1,0.1-0.2,0.2-0.3c0.4-0.4,0.9-0.9,1.3-1.3c0.3-0.3,0.5-0.5,0.7-0.8c0.2-0.2,0.3-0.3,0.6-0.3c2.4,0,4.8,0,7.2,0
		c0,0,0.1,0,0.1,0c0.2,0,0.3,0.1,0.3,0.3C15.5,12.2,15.5,12.5,15.5,12.8z"/>
	<path class="st2" d="M12,7.3c-2.9,0-5.8,0-8.8,0c-0.1,0-0.1,0-0.2,0C2.4,7.3,2.4,7.3,2.4,6.6c0-0.6,0-1.2,0-1.7
		c0-0.2,0.1-0.4,0.3-0.4c0.7,0,1.4,0,2.1,0c2.8,0,5.6,0,8.4,0c0.2,0,0.4,0,0.6,0c0.2,0.2,0.2,0.4,0,0.6C13.6,5.4,13.3,5.7,13,6
		c-0.3,0.3-0.7,0.7-1,1C11.8,7.1,12,7.2,12,7.3z"/>
	<path class="st3" d="M8.6,10.7c-1.8,0-3.5,0-5.3,0c-0.2,0-0.5,0-0.7,0c-0.2,0-0.3-0.1-0.3-0.3c0-0.7,0-1.5,0-2.2
		C2.4,8.1,2.4,8,2.6,8C2.7,8,2.8,8,3,8C7,8,11.1,8,15.2,8c0.4,0,0.4,0,0.4,0.5c0,0.6,0,1.3,0,1.9c0,0.1,0,0.3-0.1,0.4
		c0,0,0-0.1,0-0.1c0-0.7,0-1.5,0-2.2c0-0.1,0-0.2-0.1-0.3c-1.4,0-2.8,0-4.2,0c-0.2,0-0.4,0.1-0.5,0.2c-0.3,0.4-0.7,0.7-1,1.1
		C9.4,9.8,9,10.2,8.6,10.6c0,0,0,0,0,0C8.6,10.6,8.6,10.6,8.6,10.7C8.6,10.7,8.6,10.7,8.6,10.7z"/>
	<path class="st4" d="M15.5,12.8c0-0.3,0-0.6,0.1-0.9c0-0.2-0.1-0.3-0.3-0.3c0,0-0.1,0-0.1,0c-2.4,0-4.8,0-7.2,0
		c-0.3,0-0.4,0.1-0.6,0.3c-0.2,0.3-0.5,0.5-0.7,0.8c-0.4,0.4-0.9,0.9-1.3,1.3c-0.1,0.1-0.1,0.2-0.2,0.3c-0.1,0-0.2,0-0.1,0.1
		c-0.8,0.1-1.5,0-2.1-0.6c-0.5-0.6-0.6-1.3-0.6-2c0-0.1,0.1-0.2,0.2-0.2c0.1,0,0.3,0,0.4,0c4,0,8,0,12.1,0c0.1,0,0.2,0,0.4,0
		c0.1,0,0.2,0.1,0.2,0.2C15.6,12,15.7,12.4,15.5,12.8z"/>
	<path class="st5" d="M12,7.3c0-0.1-0.2-0.2,0-0.3c0.4-0.3,0.7-0.7,1-1c0.3-0.3,0.5-0.6,0.8-0.9c0.2-0.2,0.2-0.4,0-0.6
		c0.5,0,1,0,1.5,0c0.2,0,0.3,0.1,0.3,0.3c0,0.7,0,1.4,0,2.1c0,0.3-0.1,0.3-0.4,0.3C14.2,7.3,13.1,7.3,12,7.3z"/>
	<path class="st6" d="M15.6,10.6C15.6,10.7,15.6,10.7,15.6,10.6c-0.4,0.1-0.8,0.1-1.2,0.1c-1.9,0-3.9,0-5.8,0c0,0,0-0.1,0-0.1
		C10.9,10.6,13.2,10.6,15.6,10.6z"/>
	<path class="st1" d="M5,14.3c-0.1-0.1,0-0.1,0.1-0.1c1.6,0,3.1,0,4.7,0c0,0,0.1,0,0.1,0c0,0-0.1,0.1-0.1,0.1c-0.1,0-0.2,0-0.4,0
		c-1.3,0-2.6,0-3.9,0C5.5,14.3,5.3,14.3,5,14.3C5.1,14.3,5.1,14.3,5,14.3z"/>
	<path class="st6" d="M8.6,10.6C9,10.2,9.4,9.8,9.7,9.4c0.3-0.4,0.7-0.7,1-1.1C10.9,8.1,11,8,11.2,8.1c1.4,0,2.8,0,4.2,0
		c0,0.1-0.1,0.1-0.1,0.2c0,0.6,0,1.2,0,1.8c0,0.5,0,0.5-0.5,0.5C12.8,10.6,10.7,10.6,8.6,10.6z"/>
	<path class="st6" d="M8.6,10.6c2.1,0,4.2,0,6.3,0c0.5,0,0.5,0,0.5-0.5c0-0.6,0-1.2,0-1.8c0-0.1,0-0.1,0.1-0.2
		c0,0.1,0.1,0.2,0.1,0.3c0,0.7,0,1.5,0,2.2C13.2,10.6,10.9,10.6,8.6,10.6C8.6,10.6,8.6,10.6,8.6,10.6C8.6,10.6,8.6,10.6,8.6,10.6z"
		/>
</g>
<g id="rvyEv8.tif">
	
		<image style="overflow:visible;" width="231" height="284" id="Layer_0_1_" xlink:href="5DD4B811BC096DFD.png"  transform="matrix(1 0 0 1 171 -162.9275)">
	</image>
</g>
</svg>
