<svg xmlns="http://www.w3.org/2000/svg"  viewBox="0 0 24 24" width="24px" height="24px"><path d="M3 11L21 4 18 20 13 17 9.875 18.5 8 14z" opacity=".3"/><path d="M21.45,3.377c-0.485-0.415-1.209-0.492-1.935-0.205c-0.45,0.177-7.501,3.144-14.074,5.911L3.27,9.997c-0.841,0.341-1.267,0.894-1.267,1.641c0,0.523,0.222,1.234,1.278,1.652l3.667,1.467c0.317,0.951,1.053,3.159,1.238,3.746c0.11,0.348,0.388,1.225,1.09,1.43c0.144,0.049,0.294,0.074,0.447,0.074c0.443,0,0.762-0.206,0.918-0.326l2.329-1.97l2.831,2.617C15.91,20.439,16.486,21,17.261,21c0.967,0,1.701-0.805,1.854-1.584c0.083-0.427,2.812-14.129,2.812-14.127C22.172,4.19,21.733,3.62,21.45,3.377z M17.166,18.866l-4.137-3.826l-3.03,2.565c-0.359-1.107-1.301-3.922-1.301-3.922l-0.146-0.439l-4.021-1.608l1.687-0.709c4.299-1.81,11.956-5.033,13.692-5.755C19.533,7.062,17.478,17.379,17.166,18.866z"/><path d="M16.8,8c-0.125,0-0.294,0.119-0.384,0.175c-1.288,0.803-7.746,4.478-9.517,5.484C7.398,13.859,7.75,14,7.75,14s1.151,3.445,1.39,4.2c0.239,0.756,0.431,0.774,0.431,0.774c0.053,0.023,0.105,0.032,0.153,0.032c0.039,0,0.066-0.014,0.099-0.023L11,14.375c0,0,5.363-5.428,5.686-5.744C16.946,8.378,17,8.289,17,8.201C17,8.084,16.939,8,16.8,8z"/></svg>